%TF.GenerationSoftware,KiCad,Pcbnew,(5.1.4)-1*%
%TF.CreationDate,2020-11-25T20:19:59-06:00*%
%TF.ProjectId,Armboard,41726d62-6f61-4726-942e-6b696361645f,rev?*%
%TF.SameCoordinates,Original*%
%TF.FileFunction,Soldermask,Bot*%
%TF.FilePolarity,Negative*%
%FSLAX46Y46*%
G04 Gerber Fmt 4.6, Leading zero omitted, Abs format (unit mm)*
G04 Created by KiCad (PCBNEW (5.1.4)-1) date 2020-11-25 20:19:59*
%MOMM*%
%LPD*%
G04 APERTURE LIST*
%ADD10R,1.090600X1.878000*%
%ADD11C,3.046400*%
%ADD12C,1.700000*%
%ADD13R,1.700000X1.700000*%
%ADD14C,5.180000*%
%ADD15C,1.624000*%
G04 APERTURE END LIST*
D10*
%TO.C,U2*%
X99314000Y-54965600D03*
X96774000Y-54965600D03*
X94234000Y-54965600D03*
X91694000Y-54965600D03*
X89154000Y-54965600D03*
X86614000Y-54965600D03*
X84074000Y-54965600D03*
X81534000Y-54965600D03*
X78994000Y-54965600D03*
X76454000Y-54965600D03*
X99314000Y-60858400D03*
X96774000Y-60858400D03*
X94234000Y-60858400D03*
X91694000Y-60858400D03*
X89154000Y-60858400D03*
X86614000Y-60858400D03*
X84074000Y-60858400D03*
X81534000Y-60858400D03*
X78994000Y-60858400D03*
X76454000Y-60858400D03*
X99314000Y-104038400D03*
X96774000Y-104038400D03*
X94234000Y-104038400D03*
X91694000Y-104038400D03*
X89154000Y-104038400D03*
X86614000Y-104038400D03*
X84074000Y-104038400D03*
X81534000Y-104038400D03*
X78994000Y-104038400D03*
X76454000Y-104038400D03*
X99314000Y-98145600D03*
X96774000Y-98145600D03*
X94234000Y-98145600D03*
X91694000Y-98145600D03*
X89154000Y-98145600D03*
X86614000Y-98145600D03*
X84074000Y-98145600D03*
X81534000Y-98145600D03*
X78994000Y-98145600D03*
X76454000Y-98145600D03*
X145034000Y-54965600D03*
X142494000Y-54965600D03*
X139954000Y-54965600D03*
X162814000Y-60858400D03*
X160274000Y-60858400D03*
X157734000Y-60858400D03*
X155194000Y-60858400D03*
X152654000Y-60858400D03*
X150114000Y-60858400D03*
X147574000Y-60858400D03*
X145034000Y-60858400D03*
X142494000Y-60858400D03*
X139954000Y-60858400D03*
X162814000Y-104038400D03*
X157734000Y-104038400D03*
X152654000Y-104038400D03*
X150114000Y-104038400D03*
X147574000Y-104038400D03*
X145034000Y-104038400D03*
X142494000Y-104038400D03*
X162814000Y-98145600D03*
X157734000Y-98145600D03*
X147574000Y-98145600D03*
X145034000Y-98145600D03*
X142494000Y-98145600D03*
X139954000Y-98145600D03*
X152654000Y-98145600D03*
X155194000Y-98145600D03*
X160274000Y-104038400D03*
X147574000Y-54965600D03*
X150114000Y-54965600D03*
X160274000Y-98145600D03*
X155194000Y-104038400D03*
X157734000Y-54965600D03*
X155194000Y-54965600D03*
X150114000Y-98145600D03*
X152654000Y-54965600D03*
X160274000Y-54965600D03*
X162814000Y-54965600D03*
X139954000Y-104038400D03*
%TD*%
D11*
%TO.C,REF\002A\002A*%
X195580000Y-42672000D03*
%TD*%
%TO.C,REF\002A\002A*%
X78740000Y-42672000D03*
%TD*%
%TO.C,REF\002A\002A*%
X78740000Y-134620000D03*
%TD*%
%TO.C,REF\002A\002A*%
X195580000Y-134620000D03*
%TD*%
D12*
%TO.C,47uF2*%
X175474000Y-111252000D03*
D13*
X172974000Y-111252000D03*
%TD*%
D12*
%TO.C,47uF1*%
X175474000Y-118872000D03*
D13*
X172974000Y-118872000D03*
%TD*%
D14*
%TO.C,Conn1*%
X185928000Y-132080000D03*
X178054000Y-132080000D03*
X170180000Y-132080000D03*
%TD*%
D15*
%TO.C,U1*%
X185420000Y-121920000D03*
X187960000Y-121920000D03*
X190500000Y-121920000D03*
%TD*%
D14*
%TO.C,Conn4*%
X160020000Y-122910000D03*
X160020000Y-130810000D03*
%TD*%
%TO.C,Conn3*%
X151104000Y-122897000D03*
X151104000Y-130797000D03*
%TD*%
%TO.C,Conn2*%
X142240000Y-122910000D03*
X142240000Y-130810000D03*
%TD*%
D15*
%TO.C,Conn20*%
X151433000Y-89048000D03*
X148893000Y-89048000D03*
X146353000Y-89048000D03*
%TD*%
%TO.C,Conn19*%
X164013000Y-89048000D03*
X161473000Y-89048000D03*
X158933000Y-89048000D03*
%TD*%
%TO.C,Conn18*%
X176593000Y-89048000D03*
X174053000Y-89048000D03*
X171513000Y-89048000D03*
%TD*%
%TO.C,Conn17*%
X102616000Y-107696000D03*
X100076000Y-107696000D03*
%TD*%
%TO.C,Conn16*%
X102616000Y-94234000D03*
X100076000Y-94234000D03*
%TD*%
%TO.C,Conn15*%
X89916000Y-107696000D03*
X87376000Y-107696000D03*
%TD*%
%TO.C,Conn14*%
X89916000Y-94234000D03*
X87376000Y-94234000D03*
%TD*%
%TO.C,Conn13*%
X176530000Y-78994000D03*
X173990000Y-78994000D03*
X171450000Y-78994000D03*
%TD*%
%TO.C,Conn12*%
X176530000Y-68834000D03*
X173990000Y-68834000D03*
X171450000Y-68834000D03*
%TD*%
%TO.C,Conn11*%
X164084000Y-78994000D03*
X161544000Y-78994000D03*
X159004000Y-78994000D03*
%TD*%
%TO.C,Conn10*%
X164084000Y-68834000D03*
X161544000Y-68834000D03*
X159004000Y-68834000D03*
%TD*%
%TO.C,Conn9*%
X151384000Y-78994000D03*
X148844000Y-78994000D03*
X146304000Y-78994000D03*
%TD*%
%TO.C,Conn8*%
X151384000Y-68834000D03*
X148844000Y-68834000D03*
X146304000Y-68834000D03*
%TD*%
D14*
%TO.C,Conn6*%
X133350000Y-122910000D03*
X133350000Y-130810000D03*
%TD*%
M02*
