%TF.GenerationSoftware,KiCad,Pcbnew,(5.1.6)-1*%
%TF.CreationDate,2020-11-24T13:28:34-06:00*%
%TF.ProjectId,Armboard,41726d62-6f61-4726-942e-6b696361645f,rev?*%
%TF.SameCoordinates,Original*%
%TF.FileFunction,Soldermask,Top*%
%TF.FilePolarity,Negative*%
%FSLAX46Y46*%
G04 Gerber Fmt 4.6, Leading zero omitted, Abs format (unit mm)*
G04 Created by KiCad (PCBNEW (5.1.6)-1) date 2020-11-24 13:28:34*
%MOMM*%
%LPD*%
G01*
G04 APERTURE LIST*
%ADD10C,3.046400*%
%ADD11C,1.700000*%
%ADD12R,1.700000X1.700000*%
%ADD13C,5.180000*%
%ADD14C,1.624000*%
%ADD15R,3.100000X3.100000*%
%ADD16R,1.650000X1.400000*%
%ADD17R,5.357800X6.323000*%
%ADD18R,5.357800X10.412400*%
%ADD19R,1.954200X0.735000*%
%ADD20R,1.100000X1.100000*%
G04 APERTURE END LIST*
D10*
%TO.C,REF\u002A\u002A*%
X195580000Y-42672000D03*
%TD*%
%TO.C,REF\u002A\u002A*%
X78740000Y-42672000D03*
%TD*%
%TO.C,REF\u002A\u002A*%
X78740000Y-134620000D03*
%TD*%
%TO.C,REF\u002A\u002A*%
X195580000Y-134620000D03*
%TD*%
D11*
%TO.C,47uF2*%
X175474000Y-111252000D03*
D12*
X172974000Y-111252000D03*
%TD*%
D11*
%TO.C,47uF1*%
X175474000Y-118872000D03*
D12*
X172974000Y-118872000D03*
%TD*%
D13*
%TO.C,Conn1*%
X185928000Y-132080000D03*
X177800000Y-132080000D03*
X170180000Y-132080000D03*
%TD*%
D14*
%TO.C,U1*%
X185420000Y-121920000D03*
X187960000Y-121920000D03*
X190500000Y-121920000D03*
%TD*%
D15*
%TO.C,J1*%
X193040000Y-66294000D03*
%TD*%
%TO.C,C3*%
G36*
G01*
X179165000Y-124197500D02*
X179165000Y-124722500D01*
G75*
G02*
X178902500Y-124985000I-262500J0D01*
G01*
X178277500Y-124985000D01*
G75*
G02*
X178015000Y-124722500I0J262500D01*
G01*
X178015000Y-124197500D01*
G75*
G02*
X178277500Y-123935000I262500J0D01*
G01*
X178902500Y-123935000D01*
G75*
G02*
X179165000Y-124197500I0J-262500D01*
G01*
G37*
G36*
G01*
X180915000Y-124197500D02*
X180915000Y-124722500D01*
G75*
G02*
X180652500Y-124985000I-262500J0D01*
G01*
X180027500Y-124985000D01*
G75*
G02*
X179765000Y-124722500I0J262500D01*
G01*
X179765000Y-124197500D01*
G75*
G02*
X180027500Y-123935000I262500J0D01*
G01*
X180652500Y-123935000D01*
G75*
G02*
X180915000Y-124197500I0J-262500D01*
G01*
G37*
%TD*%
%TO.C,C2*%
G36*
G01*
X192945000Y-125992500D02*
X192945000Y-125467500D01*
G75*
G02*
X193207500Y-125205000I262500J0D01*
G01*
X193832500Y-125205000D01*
G75*
G02*
X194095000Y-125467500I0J-262500D01*
G01*
X194095000Y-125992500D01*
G75*
G02*
X193832500Y-126255000I-262500J0D01*
G01*
X193207500Y-126255000D01*
G75*
G02*
X192945000Y-125992500I0J262500D01*
G01*
G37*
G36*
G01*
X191195000Y-125992500D02*
X191195000Y-125467500D01*
G75*
G02*
X191457500Y-125205000I262500J0D01*
G01*
X192082500Y-125205000D01*
G75*
G02*
X192345000Y-125467500I0J-262500D01*
G01*
X192345000Y-125992500D01*
G75*
G02*
X192082500Y-126255000I-262500J0D01*
G01*
X191457500Y-126255000D01*
G75*
G02*
X191195000Y-125992500I0J262500D01*
G01*
G37*
%TD*%
D13*
%TO.C,Conn4*%
X160020000Y-122910000D03*
X160020000Y-130810000D03*
%TD*%
%TO.C,Conn3*%
X151104000Y-122897000D03*
X151104000Y-130797000D03*
%TD*%
%TO.C,Conn2*%
X142240000Y-122910000D03*
X142240000Y-130810000D03*
%TD*%
D14*
%TO.C,Conn20*%
X151433000Y-89048000D03*
X148893000Y-89048000D03*
X146353000Y-89048000D03*
%TD*%
%TO.C,Conn19*%
X164013000Y-89048000D03*
X161473000Y-89048000D03*
X158933000Y-89048000D03*
%TD*%
%TO.C,Conn18*%
X176593000Y-89048000D03*
X174053000Y-89048000D03*
X171513000Y-89048000D03*
%TD*%
%TO.C,Conn17*%
X102616000Y-107696000D03*
X100076000Y-107696000D03*
%TD*%
%TO.C,Conn16*%
X102616000Y-94234000D03*
X100076000Y-94234000D03*
%TD*%
%TO.C,Conn15*%
X89916000Y-107696000D03*
X87376000Y-107696000D03*
%TD*%
%TO.C,Conn14*%
X89916000Y-94234000D03*
X87376000Y-94234000D03*
%TD*%
%TO.C,Conn13*%
X171450000Y-78994000D03*
X173990000Y-78994000D03*
X176530000Y-78994000D03*
%TD*%
%TO.C,Conn12*%
X176530000Y-68834000D03*
X173990000Y-68834000D03*
X171450000Y-68834000D03*
%TD*%
%TO.C,Conn11*%
X164084000Y-78994000D03*
X161544000Y-78994000D03*
X159004000Y-78994000D03*
%TD*%
%TO.C,Conn10*%
X164084000Y-68834000D03*
X161544000Y-68834000D03*
X159004000Y-68834000D03*
%TD*%
%TO.C,Conn9*%
X151384000Y-78994000D03*
X148844000Y-78994000D03*
X146304000Y-78994000D03*
%TD*%
%TO.C,Conn8*%
X151384000Y-68834000D03*
X148844000Y-68834000D03*
X146304000Y-68834000D03*
%TD*%
D16*
%TO.C,SW6*%
X118110000Y-80010000D03*
X118110000Y-75510000D03*
X110160000Y-75510000D03*
X110160000Y-80010000D03*
%TD*%
%TO.C,SW5*%
X118110000Y-66040000D03*
X118110000Y-61540000D03*
X110160000Y-61540000D03*
X110160000Y-66040000D03*
%TD*%
%TO.C,SW4*%
X118110000Y-52070000D03*
X118110000Y-47570000D03*
X110160000Y-47570000D03*
X110160000Y-52070000D03*
%TD*%
%TO.C,SW3*%
X91440000Y-80010000D03*
X91440000Y-75510000D03*
X83490000Y-75510000D03*
X83490000Y-80010000D03*
%TD*%
%TO.C,SW2*%
X91440000Y-66040000D03*
X91440000Y-61540000D03*
X83490000Y-61540000D03*
X83490000Y-66040000D03*
%TD*%
%TO.C,SW1*%
X91440000Y-52070000D03*
X91440000Y-47570000D03*
X83490000Y-47570000D03*
X83490000Y-52070000D03*
%TD*%
%TO.C,R39*%
G36*
G01*
X151121500Y-96707000D02*
X151646500Y-96707000D01*
G75*
G02*
X151909000Y-96969500I0J-262500D01*
G01*
X151909000Y-97594500D01*
G75*
G02*
X151646500Y-97857000I-262500J0D01*
G01*
X151121500Y-97857000D01*
G75*
G02*
X150859000Y-97594500I0J262500D01*
G01*
X150859000Y-96969500D01*
G75*
G02*
X151121500Y-96707000I262500J0D01*
G01*
G37*
G36*
G01*
X151121500Y-94957000D02*
X151646500Y-94957000D01*
G75*
G02*
X151909000Y-95219500I0J-262500D01*
G01*
X151909000Y-95844500D01*
G75*
G02*
X151646500Y-96107000I-262500J0D01*
G01*
X151121500Y-96107000D01*
G75*
G02*
X150859000Y-95844500I0J262500D01*
G01*
X150859000Y-95219500D01*
G75*
G02*
X151121500Y-94957000I262500J0D01*
G01*
G37*
%TD*%
%TO.C,R38*%
G36*
G01*
X146566500Y-96107000D02*
X146041500Y-96107000D01*
G75*
G02*
X145779000Y-95844500I0J262500D01*
G01*
X145779000Y-95219500D01*
G75*
G02*
X146041500Y-94957000I262500J0D01*
G01*
X146566500Y-94957000D01*
G75*
G02*
X146829000Y-95219500I0J-262500D01*
G01*
X146829000Y-95844500D01*
G75*
G02*
X146566500Y-96107000I-262500J0D01*
G01*
G37*
G36*
G01*
X146566500Y-97857000D02*
X146041500Y-97857000D01*
G75*
G02*
X145779000Y-97594500I0J262500D01*
G01*
X145779000Y-96969500D01*
G75*
G02*
X146041500Y-96707000I262500J0D01*
G01*
X146566500Y-96707000D01*
G75*
G02*
X146829000Y-96969500I0J-262500D01*
G01*
X146829000Y-97594500D01*
G75*
G02*
X146566500Y-97857000I-262500J0D01*
G01*
G37*
%TD*%
%TO.C,R37*%
G36*
G01*
X163821500Y-96707000D02*
X164346500Y-96707000D01*
G75*
G02*
X164609000Y-96969500I0J-262500D01*
G01*
X164609000Y-97594500D01*
G75*
G02*
X164346500Y-97857000I-262500J0D01*
G01*
X163821500Y-97857000D01*
G75*
G02*
X163559000Y-97594500I0J262500D01*
G01*
X163559000Y-96969500D01*
G75*
G02*
X163821500Y-96707000I262500J0D01*
G01*
G37*
G36*
G01*
X163821500Y-94957000D02*
X164346500Y-94957000D01*
G75*
G02*
X164609000Y-95219500I0J-262500D01*
G01*
X164609000Y-95844500D01*
G75*
G02*
X164346500Y-96107000I-262500J0D01*
G01*
X163821500Y-96107000D01*
G75*
G02*
X163559000Y-95844500I0J262500D01*
G01*
X163559000Y-95219500D01*
G75*
G02*
X163821500Y-94957000I262500J0D01*
G01*
G37*
%TD*%
%TO.C,R36*%
G36*
G01*
X159266500Y-96079000D02*
X158741500Y-96079000D01*
G75*
G02*
X158479000Y-95816500I0J262500D01*
G01*
X158479000Y-95191500D01*
G75*
G02*
X158741500Y-94929000I262500J0D01*
G01*
X159266500Y-94929000D01*
G75*
G02*
X159529000Y-95191500I0J-262500D01*
G01*
X159529000Y-95816500D01*
G75*
G02*
X159266500Y-96079000I-262500J0D01*
G01*
G37*
G36*
G01*
X159266500Y-97829000D02*
X158741500Y-97829000D01*
G75*
G02*
X158479000Y-97566500I0J262500D01*
G01*
X158479000Y-96941500D01*
G75*
G02*
X158741500Y-96679000I262500J0D01*
G01*
X159266500Y-96679000D01*
G75*
G02*
X159529000Y-96941500I0J-262500D01*
G01*
X159529000Y-97566500D01*
G75*
G02*
X159266500Y-97829000I-262500J0D01*
G01*
G37*
%TD*%
%TO.C,R35*%
G36*
G01*
X176267500Y-96707000D02*
X176792500Y-96707000D01*
G75*
G02*
X177055000Y-96969500I0J-262500D01*
G01*
X177055000Y-97594500D01*
G75*
G02*
X176792500Y-97857000I-262500J0D01*
G01*
X176267500Y-97857000D01*
G75*
G02*
X176005000Y-97594500I0J262500D01*
G01*
X176005000Y-96969500D01*
G75*
G02*
X176267500Y-96707000I262500J0D01*
G01*
G37*
G36*
G01*
X176267500Y-94957000D02*
X176792500Y-94957000D01*
G75*
G02*
X177055000Y-95219500I0J-262500D01*
G01*
X177055000Y-95844500D01*
G75*
G02*
X176792500Y-96107000I-262500J0D01*
G01*
X176267500Y-96107000D01*
G75*
G02*
X176005000Y-95844500I0J262500D01*
G01*
X176005000Y-95219500D01*
G75*
G02*
X176267500Y-94957000I262500J0D01*
G01*
G37*
%TD*%
%TO.C,R34*%
G36*
G01*
X171712500Y-96079000D02*
X171187500Y-96079000D01*
G75*
G02*
X170925000Y-95816500I0J262500D01*
G01*
X170925000Y-95191500D01*
G75*
G02*
X171187500Y-94929000I262500J0D01*
G01*
X171712500Y-94929000D01*
G75*
G02*
X171975000Y-95191500I0J-262500D01*
G01*
X171975000Y-95816500D01*
G75*
G02*
X171712500Y-96079000I-262500J0D01*
G01*
G37*
G36*
G01*
X171712500Y-97829000D02*
X171187500Y-97829000D01*
G75*
G02*
X170925000Y-97566500I0J262500D01*
G01*
X170925000Y-96941500D01*
G75*
G02*
X171187500Y-96679000I262500J0D01*
G01*
X171712500Y-96679000D01*
G75*
G02*
X171975000Y-96941500I0J-262500D01*
G01*
X171975000Y-97566500D01*
G75*
G02*
X171712500Y-97829000I-262500J0D01*
G01*
G37*
%TD*%
%TO.C,R33*%
G36*
G01*
X110423000Y-104910500D02*
X110423000Y-104385500D01*
G75*
G02*
X110685500Y-104123000I262500J0D01*
G01*
X111310500Y-104123000D01*
G75*
G02*
X111573000Y-104385500I0J-262500D01*
G01*
X111573000Y-104910500D01*
G75*
G02*
X111310500Y-105173000I-262500J0D01*
G01*
X110685500Y-105173000D01*
G75*
G02*
X110423000Y-104910500I0J262500D01*
G01*
G37*
G36*
G01*
X108673000Y-104910500D02*
X108673000Y-104385500D01*
G75*
G02*
X108935500Y-104123000I262500J0D01*
G01*
X109560500Y-104123000D01*
G75*
G02*
X109823000Y-104385500I0J-262500D01*
G01*
X109823000Y-104910500D01*
G75*
G02*
X109560500Y-105173000I-262500J0D01*
G01*
X108935500Y-105173000D01*
G75*
G02*
X108673000Y-104910500I0J262500D01*
G01*
G37*
%TD*%
%TO.C,R32*%
G36*
G01*
X110423000Y-101354500D02*
X110423000Y-100829500D01*
G75*
G02*
X110685500Y-100567000I262500J0D01*
G01*
X111310500Y-100567000D01*
G75*
G02*
X111573000Y-100829500I0J-262500D01*
G01*
X111573000Y-101354500D01*
G75*
G02*
X111310500Y-101617000I-262500J0D01*
G01*
X110685500Y-101617000D01*
G75*
G02*
X110423000Y-101354500I0J262500D01*
G01*
G37*
G36*
G01*
X108673000Y-101354500D02*
X108673000Y-100829500D01*
G75*
G02*
X108935500Y-100567000I262500J0D01*
G01*
X109560500Y-100567000D01*
G75*
G02*
X109823000Y-100829500I0J-262500D01*
G01*
X109823000Y-101354500D01*
G75*
G02*
X109560500Y-101617000I-262500J0D01*
G01*
X108935500Y-101617000D01*
G75*
G02*
X108673000Y-101354500I0J262500D01*
G01*
G37*
%TD*%
%TO.C,R31*%
G36*
G01*
X110423000Y-97798500D02*
X110423000Y-97273500D01*
G75*
G02*
X110685500Y-97011000I262500J0D01*
G01*
X111310500Y-97011000D01*
G75*
G02*
X111573000Y-97273500I0J-262500D01*
G01*
X111573000Y-97798500D01*
G75*
G02*
X111310500Y-98061000I-262500J0D01*
G01*
X110685500Y-98061000D01*
G75*
G02*
X110423000Y-97798500I0J262500D01*
G01*
G37*
G36*
G01*
X108673000Y-97798500D02*
X108673000Y-97273500D01*
G75*
G02*
X108935500Y-97011000I262500J0D01*
G01*
X109560500Y-97011000D01*
G75*
G02*
X109823000Y-97273500I0J-262500D01*
G01*
X109823000Y-97798500D01*
G75*
G02*
X109560500Y-98061000I-262500J0D01*
G01*
X108935500Y-98061000D01*
G75*
G02*
X108673000Y-97798500I0J262500D01*
G01*
G37*
%TD*%
%TO.C,R30*%
G36*
G01*
X110423000Y-94242500D02*
X110423000Y-93717500D01*
G75*
G02*
X110685500Y-93455000I262500J0D01*
G01*
X111310500Y-93455000D01*
G75*
G02*
X111573000Y-93717500I0J-262500D01*
G01*
X111573000Y-94242500D01*
G75*
G02*
X111310500Y-94505000I-262500J0D01*
G01*
X110685500Y-94505000D01*
G75*
G02*
X110423000Y-94242500I0J262500D01*
G01*
G37*
G36*
G01*
X108673000Y-94242500D02*
X108673000Y-93717500D01*
G75*
G02*
X108935500Y-93455000I262500J0D01*
G01*
X109560500Y-93455000D01*
G75*
G02*
X109823000Y-93717500I0J-262500D01*
G01*
X109823000Y-94242500D01*
G75*
G02*
X109560500Y-94505000I-262500J0D01*
G01*
X108935500Y-94505000D01*
G75*
G02*
X108673000Y-94242500I0J262500D01*
G01*
G37*
%TD*%
%TO.C,R29*%
G36*
G01*
X104327000Y-78748500D02*
X104327000Y-78223500D01*
G75*
G02*
X104589500Y-77961000I262500J0D01*
G01*
X105214500Y-77961000D01*
G75*
G02*
X105477000Y-78223500I0J-262500D01*
G01*
X105477000Y-78748500D01*
G75*
G02*
X105214500Y-79011000I-262500J0D01*
G01*
X104589500Y-79011000D01*
G75*
G02*
X104327000Y-78748500I0J262500D01*
G01*
G37*
G36*
G01*
X102577000Y-78748500D02*
X102577000Y-78223500D01*
G75*
G02*
X102839500Y-77961000I262500J0D01*
G01*
X103464500Y-77961000D01*
G75*
G02*
X103727000Y-78223500I0J-262500D01*
G01*
X103727000Y-78748500D01*
G75*
G02*
X103464500Y-79011000I-262500J0D01*
G01*
X102839500Y-79011000D01*
G75*
G02*
X102577000Y-78748500I0J262500D01*
G01*
G37*
%TD*%
%TO.C,R28*%
G36*
G01*
X104327000Y-65540500D02*
X104327000Y-65015500D01*
G75*
G02*
X104589500Y-64753000I262500J0D01*
G01*
X105214500Y-64753000D01*
G75*
G02*
X105477000Y-65015500I0J-262500D01*
G01*
X105477000Y-65540500D01*
G75*
G02*
X105214500Y-65803000I-262500J0D01*
G01*
X104589500Y-65803000D01*
G75*
G02*
X104327000Y-65540500I0J262500D01*
G01*
G37*
G36*
G01*
X102577000Y-65540500D02*
X102577000Y-65015500D01*
G75*
G02*
X102839500Y-64753000I262500J0D01*
G01*
X103464500Y-64753000D01*
G75*
G02*
X103727000Y-65015500I0J-262500D01*
G01*
X103727000Y-65540500D01*
G75*
G02*
X103464500Y-65803000I-262500J0D01*
G01*
X102839500Y-65803000D01*
G75*
G02*
X102577000Y-65540500I0J262500D01*
G01*
G37*
%TD*%
%TO.C,R27*%
G36*
G01*
X104327000Y-52332500D02*
X104327000Y-51807500D01*
G75*
G02*
X104589500Y-51545000I262500J0D01*
G01*
X105214500Y-51545000D01*
G75*
G02*
X105477000Y-51807500I0J-262500D01*
G01*
X105477000Y-52332500D01*
G75*
G02*
X105214500Y-52595000I-262500J0D01*
G01*
X104589500Y-52595000D01*
G75*
G02*
X104327000Y-52332500I0J262500D01*
G01*
G37*
G36*
G01*
X102577000Y-52332500D02*
X102577000Y-51807500D01*
G75*
G02*
X102839500Y-51545000I262500J0D01*
G01*
X103464500Y-51545000D01*
G75*
G02*
X103727000Y-51807500I0J-262500D01*
G01*
X103727000Y-52332500D01*
G75*
G02*
X103464500Y-52595000I-262500J0D01*
G01*
X102839500Y-52595000D01*
G75*
G02*
X102577000Y-52332500I0J262500D01*
G01*
G37*
%TD*%
%TO.C,R26*%
G36*
G01*
X97603000Y-78223500D02*
X97603000Y-78748500D01*
G75*
G02*
X97340500Y-79011000I-262500J0D01*
G01*
X96715500Y-79011000D01*
G75*
G02*
X96453000Y-78748500I0J262500D01*
G01*
X96453000Y-78223500D01*
G75*
G02*
X96715500Y-77961000I262500J0D01*
G01*
X97340500Y-77961000D01*
G75*
G02*
X97603000Y-78223500I0J-262500D01*
G01*
G37*
G36*
G01*
X99353000Y-78223500D02*
X99353000Y-78748500D01*
G75*
G02*
X99090500Y-79011000I-262500J0D01*
G01*
X98465500Y-79011000D01*
G75*
G02*
X98203000Y-78748500I0J262500D01*
G01*
X98203000Y-78223500D01*
G75*
G02*
X98465500Y-77961000I262500J0D01*
G01*
X99090500Y-77961000D01*
G75*
G02*
X99353000Y-78223500I0J-262500D01*
G01*
G37*
%TD*%
%TO.C,R25*%
G36*
G01*
X97631000Y-65015500D02*
X97631000Y-65540500D01*
G75*
G02*
X97368500Y-65803000I-262500J0D01*
G01*
X96743500Y-65803000D01*
G75*
G02*
X96481000Y-65540500I0J262500D01*
G01*
X96481000Y-65015500D01*
G75*
G02*
X96743500Y-64753000I262500J0D01*
G01*
X97368500Y-64753000D01*
G75*
G02*
X97631000Y-65015500I0J-262500D01*
G01*
G37*
G36*
G01*
X99381000Y-65015500D02*
X99381000Y-65540500D01*
G75*
G02*
X99118500Y-65803000I-262500J0D01*
G01*
X98493500Y-65803000D01*
G75*
G02*
X98231000Y-65540500I0J262500D01*
G01*
X98231000Y-65015500D01*
G75*
G02*
X98493500Y-64753000I262500J0D01*
G01*
X99118500Y-64753000D01*
G75*
G02*
X99381000Y-65015500I0J-262500D01*
G01*
G37*
%TD*%
%TO.C,R24*%
G36*
G01*
X97603000Y-51807500D02*
X97603000Y-52332500D01*
G75*
G02*
X97340500Y-52595000I-262500J0D01*
G01*
X96715500Y-52595000D01*
G75*
G02*
X96453000Y-52332500I0J262500D01*
G01*
X96453000Y-51807500D01*
G75*
G02*
X96715500Y-51545000I262500J0D01*
G01*
X97340500Y-51545000D01*
G75*
G02*
X97603000Y-51807500I0J-262500D01*
G01*
G37*
G36*
G01*
X99353000Y-51807500D02*
X99353000Y-52332500D01*
G75*
G02*
X99090500Y-52595000I-262500J0D01*
G01*
X98465500Y-52595000D01*
G75*
G02*
X98203000Y-52332500I0J262500D01*
G01*
X98203000Y-51807500D01*
G75*
G02*
X98465500Y-51545000I262500J0D01*
G01*
X99090500Y-51545000D01*
G75*
G02*
X99353000Y-51807500I0J-262500D01*
G01*
G37*
%TD*%
%TO.C,R23*%
G36*
G01*
X132147000Y-52061500D02*
X132147000Y-52586500D01*
G75*
G02*
X131884500Y-52849000I-262500J0D01*
G01*
X131259500Y-52849000D01*
G75*
G02*
X130997000Y-52586500I0J262500D01*
G01*
X130997000Y-52061500D01*
G75*
G02*
X131259500Y-51799000I262500J0D01*
G01*
X131884500Y-51799000D01*
G75*
G02*
X132147000Y-52061500I0J-262500D01*
G01*
G37*
G36*
G01*
X133897000Y-52061500D02*
X133897000Y-52586500D01*
G75*
G02*
X133634500Y-52849000I-262500J0D01*
G01*
X133009500Y-52849000D01*
G75*
G02*
X132747000Y-52586500I0J262500D01*
G01*
X132747000Y-52061500D01*
G75*
G02*
X133009500Y-51799000I262500J0D01*
G01*
X133634500Y-51799000D01*
G75*
G02*
X133897000Y-52061500I0J-262500D01*
G01*
G37*
%TD*%
%TO.C,R22*%
G36*
G01*
X132147000Y-48759500D02*
X132147000Y-49284500D01*
G75*
G02*
X131884500Y-49547000I-262500J0D01*
G01*
X131259500Y-49547000D01*
G75*
G02*
X130997000Y-49284500I0J262500D01*
G01*
X130997000Y-48759500D01*
G75*
G02*
X131259500Y-48497000I262500J0D01*
G01*
X131884500Y-48497000D01*
G75*
G02*
X132147000Y-48759500I0J-262500D01*
G01*
G37*
G36*
G01*
X133897000Y-48759500D02*
X133897000Y-49284500D01*
G75*
G02*
X133634500Y-49547000I-262500J0D01*
G01*
X133009500Y-49547000D01*
G75*
G02*
X132747000Y-49284500I0J262500D01*
G01*
X132747000Y-48759500D01*
G75*
G02*
X133009500Y-48497000I262500J0D01*
G01*
X133634500Y-48497000D01*
G75*
G02*
X133897000Y-48759500I0J-262500D01*
G01*
G37*
%TD*%
%TO.C,R21*%
G36*
G01*
X132147000Y-45457500D02*
X132147000Y-45982500D01*
G75*
G02*
X131884500Y-46245000I-262500J0D01*
G01*
X131259500Y-46245000D01*
G75*
G02*
X130997000Y-45982500I0J262500D01*
G01*
X130997000Y-45457500D01*
G75*
G02*
X131259500Y-45195000I262500J0D01*
G01*
X131884500Y-45195000D01*
G75*
G02*
X132147000Y-45457500I0J-262500D01*
G01*
G37*
G36*
G01*
X133897000Y-45457500D02*
X133897000Y-45982500D01*
G75*
G02*
X133634500Y-46245000I-262500J0D01*
G01*
X133009500Y-46245000D01*
G75*
G02*
X132747000Y-45982500I0J262500D01*
G01*
X132747000Y-45457500D01*
G75*
G02*
X133009500Y-45195000I262500J0D01*
G01*
X133634500Y-45195000D01*
G75*
G02*
X133897000Y-45457500I0J-262500D01*
G01*
G37*
%TD*%
%TO.C,R20*%
G36*
G01*
X186952500Y-51375000D02*
X186427500Y-51375000D01*
G75*
G02*
X186165000Y-51112500I0J262500D01*
G01*
X186165000Y-50487500D01*
G75*
G02*
X186427500Y-50225000I262500J0D01*
G01*
X186952500Y-50225000D01*
G75*
G02*
X187215000Y-50487500I0J-262500D01*
G01*
X187215000Y-51112500D01*
G75*
G02*
X186952500Y-51375000I-262500J0D01*
G01*
G37*
G36*
G01*
X186952500Y-53125000D02*
X186427500Y-53125000D01*
G75*
G02*
X186165000Y-52862500I0J262500D01*
G01*
X186165000Y-52237500D01*
G75*
G02*
X186427500Y-51975000I262500J0D01*
G01*
X186952500Y-51975000D01*
G75*
G02*
X187215000Y-52237500I0J-262500D01*
G01*
X187215000Y-52862500D01*
G75*
G02*
X186952500Y-53125000I-262500J0D01*
G01*
G37*
%TD*%
%TO.C,R19*%
G36*
G01*
X181110500Y-51375000D02*
X180585500Y-51375000D01*
G75*
G02*
X180323000Y-51112500I0J262500D01*
G01*
X180323000Y-50487500D01*
G75*
G02*
X180585500Y-50225000I262500J0D01*
G01*
X181110500Y-50225000D01*
G75*
G02*
X181373000Y-50487500I0J-262500D01*
G01*
X181373000Y-51112500D01*
G75*
G02*
X181110500Y-51375000I-262500J0D01*
G01*
G37*
G36*
G01*
X181110500Y-53125000D02*
X180585500Y-53125000D01*
G75*
G02*
X180323000Y-52862500I0J262500D01*
G01*
X180323000Y-52237500D01*
G75*
G02*
X180585500Y-51975000I262500J0D01*
G01*
X181110500Y-51975000D01*
G75*
G02*
X181373000Y-52237500I0J-262500D01*
G01*
X181373000Y-52862500D01*
G75*
G02*
X181110500Y-53125000I-262500J0D01*
G01*
G37*
%TD*%
%TO.C,R18*%
G36*
G01*
X175268500Y-51375000D02*
X174743500Y-51375000D01*
G75*
G02*
X174481000Y-51112500I0J262500D01*
G01*
X174481000Y-50487500D01*
G75*
G02*
X174743500Y-50225000I262500J0D01*
G01*
X175268500Y-50225000D01*
G75*
G02*
X175531000Y-50487500I0J-262500D01*
G01*
X175531000Y-51112500D01*
G75*
G02*
X175268500Y-51375000I-262500J0D01*
G01*
G37*
G36*
G01*
X175268500Y-53125000D02*
X174743500Y-53125000D01*
G75*
G02*
X174481000Y-52862500I0J262500D01*
G01*
X174481000Y-52237500D01*
G75*
G02*
X174743500Y-51975000I262500J0D01*
G01*
X175268500Y-51975000D01*
G75*
G02*
X175531000Y-52237500I0J-262500D01*
G01*
X175531000Y-52862500D01*
G75*
G02*
X175268500Y-53125000I-262500J0D01*
G01*
G37*
%TD*%
%TO.C,R17*%
G36*
G01*
X169426500Y-51375000D02*
X168901500Y-51375000D01*
G75*
G02*
X168639000Y-51112500I0J262500D01*
G01*
X168639000Y-50487500D01*
G75*
G02*
X168901500Y-50225000I262500J0D01*
G01*
X169426500Y-50225000D01*
G75*
G02*
X169689000Y-50487500I0J-262500D01*
G01*
X169689000Y-51112500D01*
G75*
G02*
X169426500Y-51375000I-262500J0D01*
G01*
G37*
G36*
G01*
X169426500Y-53125000D02*
X168901500Y-53125000D01*
G75*
G02*
X168639000Y-52862500I0J262500D01*
G01*
X168639000Y-52237500D01*
G75*
G02*
X168901500Y-51975000I262500J0D01*
G01*
X169426500Y-51975000D01*
G75*
G02*
X169689000Y-52237500I0J-262500D01*
G01*
X169689000Y-52862500D01*
G75*
G02*
X169426500Y-53125000I-262500J0D01*
G01*
G37*
%TD*%
%TO.C,R16*%
G36*
G01*
X163330500Y-51403000D02*
X162805500Y-51403000D01*
G75*
G02*
X162543000Y-51140500I0J262500D01*
G01*
X162543000Y-50515500D01*
G75*
G02*
X162805500Y-50253000I262500J0D01*
G01*
X163330500Y-50253000D01*
G75*
G02*
X163593000Y-50515500I0J-262500D01*
G01*
X163593000Y-51140500D01*
G75*
G02*
X163330500Y-51403000I-262500J0D01*
G01*
G37*
G36*
G01*
X163330500Y-53153000D02*
X162805500Y-53153000D01*
G75*
G02*
X162543000Y-52890500I0J262500D01*
G01*
X162543000Y-52265500D01*
G75*
G02*
X162805500Y-52003000I262500J0D01*
G01*
X163330500Y-52003000D01*
G75*
G02*
X163593000Y-52265500I0J-262500D01*
G01*
X163593000Y-52890500D01*
G75*
G02*
X163330500Y-53153000I-262500J0D01*
G01*
G37*
%TD*%
%TO.C,R15*%
G36*
G01*
X157234500Y-51375000D02*
X156709500Y-51375000D01*
G75*
G02*
X156447000Y-51112500I0J262500D01*
G01*
X156447000Y-50487500D01*
G75*
G02*
X156709500Y-50225000I262500J0D01*
G01*
X157234500Y-50225000D01*
G75*
G02*
X157497000Y-50487500I0J-262500D01*
G01*
X157497000Y-51112500D01*
G75*
G02*
X157234500Y-51375000I-262500J0D01*
G01*
G37*
G36*
G01*
X157234500Y-53125000D02*
X156709500Y-53125000D01*
G75*
G02*
X156447000Y-52862500I0J262500D01*
G01*
X156447000Y-52237500D01*
G75*
G02*
X156709500Y-51975000I262500J0D01*
G01*
X157234500Y-51975000D01*
G75*
G02*
X157497000Y-52237500I0J-262500D01*
G01*
X157497000Y-52862500D01*
G75*
G02*
X157234500Y-53125000I-262500J0D01*
G01*
G37*
%TD*%
%TO.C,R14*%
G36*
G01*
X127262500Y-113633000D02*
X126737500Y-113633000D01*
G75*
G02*
X126475000Y-113370500I0J262500D01*
G01*
X126475000Y-112745500D01*
G75*
G02*
X126737500Y-112483000I262500J0D01*
G01*
X127262500Y-112483000D01*
G75*
G02*
X127525000Y-112745500I0J-262500D01*
G01*
X127525000Y-113370500D01*
G75*
G02*
X127262500Y-113633000I-262500J0D01*
G01*
G37*
G36*
G01*
X127262500Y-115383000D02*
X126737500Y-115383000D01*
G75*
G02*
X126475000Y-115120500I0J262500D01*
G01*
X126475000Y-114495500D01*
G75*
G02*
X126737500Y-114233000I262500J0D01*
G01*
X127262500Y-114233000D01*
G75*
G02*
X127525000Y-114495500I0J-262500D01*
G01*
X127525000Y-115120500D01*
G75*
G02*
X127262500Y-115383000I-262500J0D01*
G01*
G37*
%TD*%
%TO.C,R13*%
G36*
G01*
X145804500Y-113633000D02*
X145279500Y-113633000D01*
G75*
G02*
X145017000Y-113370500I0J262500D01*
G01*
X145017000Y-112745500D01*
G75*
G02*
X145279500Y-112483000I262500J0D01*
G01*
X145804500Y-112483000D01*
G75*
G02*
X146067000Y-112745500I0J-262500D01*
G01*
X146067000Y-113370500D01*
G75*
G02*
X145804500Y-113633000I-262500J0D01*
G01*
G37*
G36*
G01*
X145804500Y-115383000D02*
X145279500Y-115383000D01*
G75*
G02*
X145017000Y-115120500I0J262500D01*
G01*
X145017000Y-114495500D01*
G75*
G02*
X145279500Y-114233000I262500J0D01*
G01*
X145804500Y-114233000D01*
G75*
G02*
X146067000Y-114495500I0J-262500D01*
G01*
X146067000Y-115120500D01*
G75*
G02*
X145804500Y-115383000I-262500J0D01*
G01*
G37*
%TD*%
%TO.C,R12*%
G36*
G01*
X139454500Y-113633000D02*
X138929500Y-113633000D01*
G75*
G02*
X138667000Y-113370500I0J262500D01*
G01*
X138667000Y-112745500D01*
G75*
G02*
X138929500Y-112483000I262500J0D01*
G01*
X139454500Y-112483000D01*
G75*
G02*
X139717000Y-112745500I0J-262500D01*
G01*
X139717000Y-113370500D01*
G75*
G02*
X139454500Y-113633000I-262500J0D01*
G01*
G37*
G36*
G01*
X139454500Y-115383000D02*
X138929500Y-115383000D01*
G75*
G02*
X138667000Y-115120500I0J262500D01*
G01*
X138667000Y-114495500D01*
G75*
G02*
X138929500Y-114233000I262500J0D01*
G01*
X139454500Y-114233000D01*
G75*
G02*
X139717000Y-114495500I0J-262500D01*
G01*
X139717000Y-115120500D01*
G75*
G02*
X139454500Y-115383000I-262500J0D01*
G01*
G37*
%TD*%
%TO.C,R11*%
G36*
G01*
X133104500Y-113633000D02*
X132579500Y-113633000D01*
G75*
G02*
X132317000Y-113370500I0J262500D01*
G01*
X132317000Y-112745500D01*
G75*
G02*
X132579500Y-112483000I262500J0D01*
G01*
X133104500Y-112483000D01*
G75*
G02*
X133367000Y-112745500I0J-262500D01*
G01*
X133367000Y-113370500D01*
G75*
G02*
X133104500Y-113633000I-262500J0D01*
G01*
G37*
G36*
G01*
X133104500Y-115383000D02*
X132579500Y-115383000D01*
G75*
G02*
X132317000Y-115120500I0J262500D01*
G01*
X132317000Y-114495500D01*
G75*
G02*
X132579500Y-114233000I262500J0D01*
G01*
X133104500Y-114233000D01*
G75*
G02*
X133367000Y-114495500I0J-262500D01*
G01*
X133367000Y-115120500D01*
G75*
G02*
X133104500Y-115383000I-262500J0D01*
G01*
G37*
%TD*%
%TO.C,R10*%
G36*
G01*
X192777500Y-76895000D02*
X193302500Y-76895000D01*
G75*
G02*
X193565000Y-77157500I0J-262500D01*
G01*
X193565000Y-77782500D01*
G75*
G02*
X193302500Y-78045000I-262500J0D01*
G01*
X192777500Y-78045000D01*
G75*
G02*
X192515000Y-77782500I0J262500D01*
G01*
X192515000Y-77157500D01*
G75*
G02*
X192777500Y-76895000I262500J0D01*
G01*
G37*
G36*
G01*
X192777500Y-75145000D02*
X193302500Y-75145000D01*
G75*
G02*
X193565000Y-75407500I0J-262500D01*
G01*
X193565000Y-76032500D01*
G75*
G02*
X193302500Y-76295000I-262500J0D01*
G01*
X192777500Y-76295000D01*
G75*
G02*
X192515000Y-76032500I0J262500D01*
G01*
X192515000Y-75407500D01*
G75*
G02*
X192777500Y-75145000I262500J0D01*
G01*
G37*
%TD*%
%TO.C,R9*%
G36*
G01*
X121420500Y-113633000D02*
X120895500Y-113633000D01*
G75*
G02*
X120633000Y-113370500I0J262500D01*
G01*
X120633000Y-112745500D01*
G75*
G02*
X120895500Y-112483000I262500J0D01*
G01*
X121420500Y-112483000D01*
G75*
G02*
X121683000Y-112745500I0J-262500D01*
G01*
X121683000Y-113370500D01*
G75*
G02*
X121420500Y-113633000I-262500J0D01*
G01*
G37*
G36*
G01*
X121420500Y-115383000D02*
X120895500Y-115383000D01*
G75*
G02*
X120633000Y-115120500I0J262500D01*
G01*
X120633000Y-114495500D01*
G75*
G02*
X120895500Y-114233000I262500J0D01*
G01*
X121420500Y-114233000D01*
G75*
G02*
X121683000Y-114495500I0J-262500D01*
G01*
X121683000Y-115120500D01*
G75*
G02*
X121420500Y-115383000I-262500J0D01*
G01*
G37*
%TD*%
%TO.C,R8*%
G36*
G01*
X81271500Y-121317000D02*
X81796500Y-121317000D01*
G75*
G02*
X82059000Y-121579500I0J-262500D01*
G01*
X82059000Y-122204500D01*
G75*
G02*
X81796500Y-122467000I-262500J0D01*
G01*
X81271500Y-122467000D01*
G75*
G02*
X81009000Y-122204500I0J262500D01*
G01*
X81009000Y-121579500D01*
G75*
G02*
X81271500Y-121317000I262500J0D01*
G01*
G37*
G36*
G01*
X81271500Y-119567000D02*
X81796500Y-119567000D01*
G75*
G02*
X82059000Y-119829500I0J-262500D01*
G01*
X82059000Y-120454500D01*
G75*
G02*
X81796500Y-120717000I-262500J0D01*
G01*
X81271500Y-120717000D01*
G75*
G02*
X81009000Y-120454500I0J262500D01*
G01*
X81009000Y-119829500D01*
G75*
G02*
X81271500Y-119567000I262500J0D01*
G01*
G37*
%TD*%
%TO.C,R7*%
G36*
G01*
X84319500Y-121317000D02*
X84844500Y-121317000D01*
G75*
G02*
X85107000Y-121579500I0J-262500D01*
G01*
X85107000Y-122204500D01*
G75*
G02*
X84844500Y-122467000I-262500J0D01*
G01*
X84319500Y-122467000D01*
G75*
G02*
X84057000Y-122204500I0J262500D01*
G01*
X84057000Y-121579500D01*
G75*
G02*
X84319500Y-121317000I262500J0D01*
G01*
G37*
G36*
G01*
X84319500Y-119567000D02*
X84844500Y-119567000D01*
G75*
G02*
X85107000Y-119829500I0J-262500D01*
G01*
X85107000Y-120454500D01*
G75*
G02*
X84844500Y-120717000I-262500J0D01*
G01*
X84319500Y-120717000D01*
G75*
G02*
X84057000Y-120454500I0J262500D01*
G01*
X84057000Y-119829500D01*
G75*
G02*
X84319500Y-119567000I262500J0D01*
G01*
G37*
%TD*%
%TO.C,R6*%
G36*
G01*
X97781500Y-128203000D02*
X98306500Y-128203000D01*
G75*
G02*
X98569000Y-128465500I0J-262500D01*
G01*
X98569000Y-129090500D01*
G75*
G02*
X98306500Y-129353000I-262500J0D01*
G01*
X97781500Y-129353000D01*
G75*
G02*
X97519000Y-129090500I0J262500D01*
G01*
X97519000Y-128465500D01*
G75*
G02*
X97781500Y-128203000I262500J0D01*
G01*
G37*
G36*
G01*
X97781500Y-126453000D02*
X98306500Y-126453000D01*
G75*
G02*
X98569000Y-126715500I0J-262500D01*
G01*
X98569000Y-127340500D01*
G75*
G02*
X98306500Y-127603000I-262500J0D01*
G01*
X97781500Y-127603000D01*
G75*
G02*
X97519000Y-127340500I0J262500D01*
G01*
X97519000Y-126715500D01*
G75*
G02*
X97781500Y-126453000I262500J0D01*
G01*
G37*
%TD*%
%TO.C,R5*%
G36*
G01*
X94242500Y-127603000D02*
X93717500Y-127603000D01*
G75*
G02*
X93455000Y-127340500I0J262500D01*
G01*
X93455000Y-126715500D01*
G75*
G02*
X93717500Y-126453000I262500J0D01*
G01*
X94242500Y-126453000D01*
G75*
G02*
X94505000Y-126715500I0J-262500D01*
G01*
X94505000Y-127340500D01*
G75*
G02*
X94242500Y-127603000I-262500J0D01*
G01*
G37*
G36*
G01*
X94242500Y-129353000D02*
X93717500Y-129353000D01*
G75*
G02*
X93455000Y-129090500I0J262500D01*
G01*
X93455000Y-128465500D01*
G75*
G02*
X93717500Y-128203000I262500J0D01*
G01*
X94242500Y-128203000D01*
G75*
G02*
X94505000Y-128465500I0J-262500D01*
G01*
X94505000Y-129090500D01*
G75*
G02*
X94242500Y-129353000I-262500J0D01*
G01*
G37*
%TD*%
%TO.C,R4*%
G36*
G01*
X88637500Y-121345000D02*
X89162500Y-121345000D01*
G75*
G02*
X89425000Y-121607500I0J-262500D01*
G01*
X89425000Y-122232500D01*
G75*
G02*
X89162500Y-122495000I-262500J0D01*
G01*
X88637500Y-122495000D01*
G75*
G02*
X88375000Y-122232500I0J262500D01*
G01*
X88375000Y-121607500D01*
G75*
G02*
X88637500Y-121345000I262500J0D01*
G01*
G37*
G36*
G01*
X88637500Y-119595000D02*
X89162500Y-119595000D01*
G75*
G02*
X89425000Y-119857500I0J-262500D01*
G01*
X89425000Y-120482500D01*
G75*
G02*
X89162500Y-120745000I-262500J0D01*
G01*
X88637500Y-120745000D01*
G75*
G02*
X88375000Y-120482500I0J262500D01*
G01*
X88375000Y-119857500D01*
G75*
G02*
X88637500Y-119595000I262500J0D01*
G01*
G37*
%TD*%
%TO.C,R3*%
G36*
G01*
X91685500Y-121317000D02*
X92210500Y-121317000D01*
G75*
G02*
X92473000Y-121579500I0J-262500D01*
G01*
X92473000Y-122204500D01*
G75*
G02*
X92210500Y-122467000I-262500J0D01*
G01*
X91685500Y-122467000D01*
G75*
G02*
X91423000Y-122204500I0J262500D01*
G01*
X91423000Y-121579500D01*
G75*
G02*
X91685500Y-121317000I262500J0D01*
G01*
G37*
G36*
G01*
X91685500Y-119567000D02*
X92210500Y-119567000D01*
G75*
G02*
X92473000Y-119829500I0J-262500D01*
G01*
X92473000Y-120454500D01*
G75*
G02*
X92210500Y-120717000I-262500J0D01*
G01*
X91685500Y-120717000D01*
G75*
G02*
X91423000Y-120454500I0J262500D01*
G01*
X91423000Y-119829500D01*
G75*
G02*
X91685500Y-119567000I262500J0D01*
G01*
G37*
%TD*%
%TO.C,R2*%
G36*
G01*
X94733500Y-121345000D02*
X95258500Y-121345000D01*
G75*
G02*
X95521000Y-121607500I0J-262500D01*
G01*
X95521000Y-122232500D01*
G75*
G02*
X95258500Y-122495000I-262500J0D01*
G01*
X94733500Y-122495000D01*
G75*
G02*
X94471000Y-122232500I0J262500D01*
G01*
X94471000Y-121607500D01*
G75*
G02*
X94733500Y-121345000I262500J0D01*
G01*
G37*
G36*
G01*
X94733500Y-119595000D02*
X95258500Y-119595000D01*
G75*
G02*
X95521000Y-119857500I0J-262500D01*
G01*
X95521000Y-120482500D01*
G75*
G02*
X95258500Y-120745000I-262500J0D01*
G01*
X94733500Y-120745000D01*
G75*
G02*
X94471000Y-120482500I0J262500D01*
G01*
X94471000Y-119857500D01*
G75*
G02*
X94733500Y-119595000I262500J0D01*
G01*
G37*
%TD*%
%TO.C,R1*%
G36*
G01*
X97781500Y-121345000D02*
X98306500Y-121345000D01*
G75*
G02*
X98569000Y-121607500I0J-262500D01*
G01*
X98569000Y-122232500D01*
G75*
G02*
X98306500Y-122495000I-262500J0D01*
G01*
X97781500Y-122495000D01*
G75*
G02*
X97519000Y-122232500I0J262500D01*
G01*
X97519000Y-121607500D01*
G75*
G02*
X97781500Y-121345000I262500J0D01*
G01*
G37*
G36*
G01*
X97781500Y-119595000D02*
X98306500Y-119595000D01*
G75*
G02*
X98569000Y-119857500I0J-262500D01*
G01*
X98569000Y-120482500D01*
G75*
G02*
X98306500Y-120745000I-262500J0D01*
G01*
X97781500Y-120745000D01*
G75*
G02*
X97519000Y-120482500I0J262500D01*
G01*
X97519000Y-119857500D01*
G75*
G02*
X97781500Y-119595000I262500J0D01*
G01*
G37*
%TD*%
D17*
%TO.C,Gripper_Motor1*%
X117856000Y-131165600D03*
D18*
X111760000Y-127000000D03*
D17*
X117856000Y-122834400D03*
D19*
X123812300Y-119999999D03*
X123812300Y-120999999D03*
X123812300Y-122000000D03*
X123812300Y-123000000D03*
X123812300Y-124000001D03*
X123812300Y-124999999D03*
X123812300Y-125999999D03*
X123812300Y-127000000D03*
X123812300Y-128000001D03*
X123812300Y-129000001D03*
X123812300Y-129999999D03*
X123812300Y-131000000D03*
X123812300Y-132000000D03*
X123812300Y-133000001D03*
X123812300Y-133999999D03*
X105803700Y-134000001D03*
X105803700Y-133000001D03*
X105803700Y-132000000D03*
X105803700Y-131000000D03*
X105803700Y-129999999D03*
X105803700Y-129000001D03*
X105803700Y-128000001D03*
X105803700Y-127000000D03*
X105803700Y-125999999D03*
X105803700Y-124999999D03*
X105803700Y-124000001D03*
X105803700Y-123000000D03*
X105803700Y-122000000D03*
X105803700Y-120999999D03*
X105803700Y-120000001D03*
%TD*%
%TO.C,D33*%
G36*
G01*
X151646500Y-100171000D02*
X151121500Y-100171000D01*
G75*
G02*
X150859000Y-99908500I0J262500D01*
G01*
X150859000Y-99283500D01*
G75*
G02*
X151121500Y-99021000I262500J0D01*
G01*
X151646500Y-99021000D01*
G75*
G02*
X151909000Y-99283500I0J-262500D01*
G01*
X151909000Y-99908500D01*
G75*
G02*
X151646500Y-100171000I-262500J0D01*
G01*
G37*
G36*
G01*
X151646500Y-101921000D02*
X151121500Y-101921000D01*
G75*
G02*
X150859000Y-101658500I0J262500D01*
G01*
X150859000Y-101033500D01*
G75*
G02*
X151121500Y-100771000I262500J0D01*
G01*
X151646500Y-100771000D01*
G75*
G02*
X151909000Y-101033500I0J-262500D01*
G01*
X151909000Y-101658500D01*
G75*
G02*
X151646500Y-101921000I-262500J0D01*
G01*
G37*
%TD*%
%TO.C,D32*%
G36*
G01*
X146566500Y-100143000D02*
X146041500Y-100143000D01*
G75*
G02*
X145779000Y-99880500I0J262500D01*
G01*
X145779000Y-99255500D01*
G75*
G02*
X146041500Y-98993000I262500J0D01*
G01*
X146566500Y-98993000D01*
G75*
G02*
X146829000Y-99255500I0J-262500D01*
G01*
X146829000Y-99880500D01*
G75*
G02*
X146566500Y-100143000I-262500J0D01*
G01*
G37*
G36*
G01*
X146566500Y-101893000D02*
X146041500Y-101893000D01*
G75*
G02*
X145779000Y-101630500I0J262500D01*
G01*
X145779000Y-101005500D01*
G75*
G02*
X146041500Y-100743000I262500J0D01*
G01*
X146566500Y-100743000D01*
G75*
G02*
X146829000Y-101005500I0J-262500D01*
G01*
X146829000Y-101630500D01*
G75*
G02*
X146566500Y-101893000I-262500J0D01*
G01*
G37*
%TD*%
%TO.C,D31*%
G36*
G01*
X164346500Y-100143000D02*
X163821500Y-100143000D01*
G75*
G02*
X163559000Y-99880500I0J262500D01*
G01*
X163559000Y-99255500D01*
G75*
G02*
X163821500Y-98993000I262500J0D01*
G01*
X164346500Y-98993000D01*
G75*
G02*
X164609000Y-99255500I0J-262500D01*
G01*
X164609000Y-99880500D01*
G75*
G02*
X164346500Y-100143000I-262500J0D01*
G01*
G37*
G36*
G01*
X164346500Y-101893000D02*
X163821500Y-101893000D01*
G75*
G02*
X163559000Y-101630500I0J262500D01*
G01*
X163559000Y-101005500D01*
G75*
G02*
X163821500Y-100743000I262500J0D01*
G01*
X164346500Y-100743000D01*
G75*
G02*
X164609000Y-101005500I0J-262500D01*
G01*
X164609000Y-101630500D01*
G75*
G02*
X164346500Y-101893000I-262500J0D01*
G01*
G37*
%TD*%
%TO.C,D30*%
G36*
G01*
X159266500Y-100143000D02*
X158741500Y-100143000D01*
G75*
G02*
X158479000Y-99880500I0J262500D01*
G01*
X158479000Y-99255500D01*
G75*
G02*
X158741500Y-98993000I262500J0D01*
G01*
X159266500Y-98993000D01*
G75*
G02*
X159529000Y-99255500I0J-262500D01*
G01*
X159529000Y-99880500D01*
G75*
G02*
X159266500Y-100143000I-262500J0D01*
G01*
G37*
G36*
G01*
X159266500Y-101893000D02*
X158741500Y-101893000D01*
G75*
G02*
X158479000Y-101630500I0J262500D01*
G01*
X158479000Y-101005500D01*
G75*
G02*
X158741500Y-100743000I262500J0D01*
G01*
X159266500Y-100743000D01*
G75*
G02*
X159529000Y-101005500I0J-262500D01*
G01*
X159529000Y-101630500D01*
G75*
G02*
X159266500Y-101893000I-262500J0D01*
G01*
G37*
%TD*%
%TO.C,D29*%
G36*
G01*
X176792500Y-100171000D02*
X176267500Y-100171000D01*
G75*
G02*
X176005000Y-99908500I0J262500D01*
G01*
X176005000Y-99283500D01*
G75*
G02*
X176267500Y-99021000I262500J0D01*
G01*
X176792500Y-99021000D01*
G75*
G02*
X177055000Y-99283500I0J-262500D01*
G01*
X177055000Y-99908500D01*
G75*
G02*
X176792500Y-100171000I-262500J0D01*
G01*
G37*
G36*
G01*
X176792500Y-101921000D02*
X176267500Y-101921000D01*
G75*
G02*
X176005000Y-101658500I0J262500D01*
G01*
X176005000Y-101033500D01*
G75*
G02*
X176267500Y-100771000I262500J0D01*
G01*
X176792500Y-100771000D01*
G75*
G02*
X177055000Y-101033500I0J-262500D01*
G01*
X177055000Y-101658500D01*
G75*
G02*
X176792500Y-101921000I-262500J0D01*
G01*
G37*
%TD*%
%TO.C,D28*%
G36*
G01*
X171712500Y-100171000D02*
X171187500Y-100171000D01*
G75*
G02*
X170925000Y-99908500I0J262500D01*
G01*
X170925000Y-99283500D01*
G75*
G02*
X171187500Y-99021000I262500J0D01*
G01*
X171712500Y-99021000D01*
G75*
G02*
X171975000Y-99283500I0J-262500D01*
G01*
X171975000Y-99908500D01*
G75*
G02*
X171712500Y-100171000I-262500J0D01*
G01*
G37*
G36*
G01*
X171712500Y-101921000D02*
X171187500Y-101921000D01*
G75*
G02*
X170925000Y-101658500I0J262500D01*
G01*
X170925000Y-101033500D01*
G75*
G02*
X171187500Y-100771000I262500J0D01*
G01*
X171712500Y-100771000D01*
G75*
G02*
X171975000Y-101033500I0J-262500D01*
G01*
X171975000Y-101658500D01*
G75*
G02*
X171712500Y-101921000I-262500J0D01*
G01*
G37*
%TD*%
%TO.C,D27*%
G36*
G01*
X114113000Y-104385500D02*
X114113000Y-104910500D01*
G75*
G02*
X113850500Y-105173000I-262500J0D01*
G01*
X113225500Y-105173000D01*
G75*
G02*
X112963000Y-104910500I0J262500D01*
G01*
X112963000Y-104385500D01*
G75*
G02*
X113225500Y-104123000I262500J0D01*
G01*
X113850500Y-104123000D01*
G75*
G02*
X114113000Y-104385500I0J-262500D01*
G01*
G37*
G36*
G01*
X115863000Y-104385500D02*
X115863000Y-104910500D01*
G75*
G02*
X115600500Y-105173000I-262500J0D01*
G01*
X114975500Y-105173000D01*
G75*
G02*
X114713000Y-104910500I0J262500D01*
G01*
X114713000Y-104385500D01*
G75*
G02*
X114975500Y-104123000I262500J0D01*
G01*
X115600500Y-104123000D01*
G75*
G02*
X115863000Y-104385500I0J-262500D01*
G01*
G37*
%TD*%
%TO.C,D26*%
G36*
G01*
X114113000Y-100829500D02*
X114113000Y-101354500D01*
G75*
G02*
X113850500Y-101617000I-262500J0D01*
G01*
X113225500Y-101617000D01*
G75*
G02*
X112963000Y-101354500I0J262500D01*
G01*
X112963000Y-100829500D01*
G75*
G02*
X113225500Y-100567000I262500J0D01*
G01*
X113850500Y-100567000D01*
G75*
G02*
X114113000Y-100829500I0J-262500D01*
G01*
G37*
G36*
G01*
X115863000Y-100829500D02*
X115863000Y-101354500D01*
G75*
G02*
X115600500Y-101617000I-262500J0D01*
G01*
X114975500Y-101617000D01*
G75*
G02*
X114713000Y-101354500I0J262500D01*
G01*
X114713000Y-100829500D01*
G75*
G02*
X114975500Y-100567000I262500J0D01*
G01*
X115600500Y-100567000D01*
G75*
G02*
X115863000Y-100829500I0J-262500D01*
G01*
G37*
%TD*%
%TO.C,D25*%
G36*
G01*
X114113000Y-97273500D02*
X114113000Y-97798500D01*
G75*
G02*
X113850500Y-98061000I-262500J0D01*
G01*
X113225500Y-98061000D01*
G75*
G02*
X112963000Y-97798500I0J262500D01*
G01*
X112963000Y-97273500D01*
G75*
G02*
X113225500Y-97011000I262500J0D01*
G01*
X113850500Y-97011000D01*
G75*
G02*
X114113000Y-97273500I0J-262500D01*
G01*
G37*
G36*
G01*
X115863000Y-97273500D02*
X115863000Y-97798500D01*
G75*
G02*
X115600500Y-98061000I-262500J0D01*
G01*
X114975500Y-98061000D01*
G75*
G02*
X114713000Y-97798500I0J262500D01*
G01*
X114713000Y-97273500D01*
G75*
G02*
X114975500Y-97011000I262500J0D01*
G01*
X115600500Y-97011000D01*
G75*
G02*
X115863000Y-97273500I0J-262500D01*
G01*
G37*
%TD*%
%TO.C,D24*%
G36*
G01*
X114141000Y-93717500D02*
X114141000Y-94242500D01*
G75*
G02*
X113878500Y-94505000I-262500J0D01*
G01*
X113253500Y-94505000D01*
G75*
G02*
X112991000Y-94242500I0J262500D01*
G01*
X112991000Y-93717500D01*
G75*
G02*
X113253500Y-93455000I262500J0D01*
G01*
X113878500Y-93455000D01*
G75*
G02*
X114141000Y-93717500I0J-262500D01*
G01*
G37*
G36*
G01*
X115891000Y-93717500D02*
X115891000Y-94242500D01*
G75*
G02*
X115628500Y-94505000I-262500J0D01*
G01*
X115003500Y-94505000D01*
G75*
G02*
X114741000Y-94242500I0J262500D01*
G01*
X114741000Y-93717500D01*
G75*
G02*
X115003500Y-93455000I262500J0D01*
G01*
X115628500Y-93455000D01*
G75*
G02*
X115891000Y-93717500I0J-262500D01*
G01*
G37*
%TD*%
%TO.C,D23*%
G36*
G01*
X103727000Y-75175500D02*
X103727000Y-75700500D01*
G75*
G02*
X103464500Y-75963000I-262500J0D01*
G01*
X102839500Y-75963000D01*
G75*
G02*
X102577000Y-75700500I0J262500D01*
G01*
X102577000Y-75175500D01*
G75*
G02*
X102839500Y-74913000I262500J0D01*
G01*
X103464500Y-74913000D01*
G75*
G02*
X103727000Y-75175500I0J-262500D01*
G01*
G37*
G36*
G01*
X105477000Y-75175500D02*
X105477000Y-75700500D01*
G75*
G02*
X105214500Y-75963000I-262500J0D01*
G01*
X104589500Y-75963000D01*
G75*
G02*
X104327000Y-75700500I0J262500D01*
G01*
X104327000Y-75175500D01*
G75*
G02*
X104589500Y-74913000I262500J0D01*
G01*
X105214500Y-74913000D01*
G75*
G02*
X105477000Y-75175500I0J-262500D01*
G01*
G37*
%TD*%
%TO.C,D22*%
G36*
G01*
X103727000Y-61967500D02*
X103727000Y-62492500D01*
G75*
G02*
X103464500Y-62755000I-262500J0D01*
G01*
X102839500Y-62755000D01*
G75*
G02*
X102577000Y-62492500I0J262500D01*
G01*
X102577000Y-61967500D01*
G75*
G02*
X102839500Y-61705000I262500J0D01*
G01*
X103464500Y-61705000D01*
G75*
G02*
X103727000Y-61967500I0J-262500D01*
G01*
G37*
G36*
G01*
X105477000Y-61967500D02*
X105477000Y-62492500D01*
G75*
G02*
X105214500Y-62755000I-262500J0D01*
G01*
X104589500Y-62755000D01*
G75*
G02*
X104327000Y-62492500I0J262500D01*
G01*
X104327000Y-61967500D01*
G75*
G02*
X104589500Y-61705000I262500J0D01*
G01*
X105214500Y-61705000D01*
G75*
G02*
X105477000Y-61967500I0J-262500D01*
G01*
G37*
%TD*%
%TO.C,D21*%
G36*
G01*
X103699000Y-48759500D02*
X103699000Y-49284500D01*
G75*
G02*
X103436500Y-49547000I-262500J0D01*
G01*
X102811500Y-49547000D01*
G75*
G02*
X102549000Y-49284500I0J262500D01*
G01*
X102549000Y-48759500D01*
G75*
G02*
X102811500Y-48497000I262500J0D01*
G01*
X103436500Y-48497000D01*
G75*
G02*
X103699000Y-48759500I0J-262500D01*
G01*
G37*
G36*
G01*
X105449000Y-48759500D02*
X105449000Y-49284500D01*
G75*
G02*
X105186500Y-49547000I-262500J0D01*
G01*
X104561500Y-49547000D01*
G75*
G02*
X104299000Y-49284500I0J262500D01*
G01*
X104299000Y-48759500D01*
G75*
G02*
X104561500Y-48497000I262500J0D01*
G01*
X105186500Y-48497000D01*
G75*
G02*
X105449000Y-48759500I0J-262500D01*
G01*
G37*
%TD*%
%TO.C,D20*%
G36*
G01*
X97631000Y-75175500D02*
X97631000Y-75700500D01*
G75*
G02*
X97368500Y-75963000I-262500J0D01*
G01*
X96743500Y-75963000D01*
G75*
G02*
X96481000Y-75700500I0J262500D01*
G01*
X96481000Y-75175500D01*
G75*
G02*
X96743500Y-74913000I262500J0D01*
G01*
X97368500Y-74913000D01*
G75*
G02*
X97631000Y-75175500I0J-262500D01*
G01*
G37*
G36*
G01*
X99381000Y-75175500D02*
X99381000Y-75700500D01*
G75*
G02*
X99118500Y-75963000I-262500J0D01*
G01*
X98493500Y-75963000D01*
G75*
G02*
X98231000Y-75700500I0J262500D01*
G01*
X98231000Y-75175500D01*
G75*
G02*
X98493500Y-74913000I262500J0D01*
G01*
X99118500Y-74913000D01*
G75*
G02*
X99381000Y-75175500I0J-262500D01*
G01*
G37*
%TD*%
%TO.C,D19*%
G36*
G01*
X97603000Y-61967500D02*
X97603000Y-62492500D01*
G75*
G02*
X97340500Y-62755000I-262500J0D01*
G01*
X96715500Y-62755000D01*
G75*
G02*
X96453000Y-62492500I0J262500D01*
G01*
X96453000Y-61967500D01*
G75*
G02*
X96715500Y-61705000I262500J0D01*
G01*
X97340500Y-61705000D01*
G75*
G02*
X97603000Y-61967500I0J-262500D01*
G01*
G37*
G36*
G01*
X99353000Y-61967500D02*
X99353000Y-62492500D01*
G75*
G02*
X99090500Y-62755000I-262500J0D01*
G01*
X98465500Y-62755000D01*
G75*
G02*
X98203000Y-62492500I0J262500D01*
G01*
X98203000Y-61967500D01*
G75*
G02*
X98465500Y-61705000I262500J0D01*
G01*
X99090500Y-61705000D01*
G75*
G02*
X99353000Y-61967500I0J-262500D01*
G01*
G37*
%TD*%
%TO.C,D18*%
G36*
G01*
X97631000Y-48759500D02*
X97631000Y-49284500D01*
G75*
G02*
X97368500Y-49547000I-262500J0D01*
G01*
X96743500Y-49547000D01*
G75*
G02*
X96481000Y-49284500I0J262500D01*
G01*
X96481000Y-48759500D01*
G75*
G02*
X96743500Y-48497000I262500J0D01*
G01*
X97368500Y-48497000D01*
G75*
G02*
X97631000Y-48759500I0J-262500D01*
G01*
G37*
G36*
G01*
X99381000Y-48759500D02*
X99381000Y-49284500D01*
G75*
G02*
X99118500Y-49547000I-262500J0D01*
G01*
X98493500Y-49547000D01*
G75*
G02*
X98231000Y-49284500I0J262500D01*
G01*
X98231000Y-48759500D01*
G75*
G02*
X98493500Y-48497000I262500J0D01*
G01*
X99118500Y-48497000D01*
G75*
G02*
X99381000Y-48759500I0J-262500D01*
G01*
G37*
%TD*%
%TO.C,D17*%
G36*
G01*
X136465000Y-52061500D02*
X136465000Y-52586500D01*
G75*
G02*
X136202500Y-52849000I-262500J0D01*
G01*
X135577500Y-52849000D01*
G75*
G02*
X135315000Y-52586500I0J262500D01*
G01*
X135315000Y-52061500D01*
G75*
G02*
X135577500Y-51799000I262500J0D01*
G01*
X136202500Y-51799000D01*
G75*
G02*
X136465000Y-52061500I0J-262500D01*
G01*
G37*
G36*
G01*
X138215000Y-52061500D02*
X138215000Y-52586500D01*
G75*
G02*
X137952500Y-52849000I-262500J0D01*
G01*
X137327500Y-52849000D01*
G75*
G02*
X137065000Y-52586500I0J262500D01*
G01*
X137065000Y-52061500D01*
G75*
G02*
X137327500Y-51799000I262500J0D01*
G01*
X137952500Y-51799000D01*
G75*
G02*
X138215000Y-52061500I0J-262500D01*
G01*
G37*
%TD*%
%TO.C,D16*%
G36*
G01*
X136465000Y-48759500D02*
X136465000Y-49284500D01*
G75*
G02*
X136202500Y-49547000I-262500J0D01*
G01*
X135577500Y-49547000D01*
G75*
G02*
X135315000Y-49284500I0J262500D01*
G01*
X135315000Y-48759500D01*
G75*
G02*
X135577500Y-48497000I262500J0D01*
G01*
X136202500Y-48497000D01*
G75*
G02*
X136465000Y-48759500I0J-262500D01*
G01*
G37*
G36*
G01*
X138215000Y-48759500D02*
X138215000Y-49284500D01*
G75*
G02*
X137952500Y-49547000I-262500J0D01*
G01*
X137327500Y-49547000D01*
G75*
G02*
X137065000Y-49284500I0J262500D01*
G01*
X137065000Y-48759500D01*
G75*
G02*
X137327500Y-48497000I262500J0D01*
G01*
X137952500Y-48497000D01*
G75*
G02*
X138215000Y-48759500I0J-262500D01*
G01*
G37*
%TD*%
%TO.C,D15*%
G36*
G01*
X136465000Y-45457500D02*
X136465000Y-45982500D01*
G75*
G02*
X136202500Y-46245000I-262500J0D01*
G01*
X135577500Y-46245000D01*
G75*
G02*
X135315000Y-45982500I0J262500D01*
G01*
X135315000Y-45457500D01*
G75*
G02*
X135577500Y-45195000I262500J0D01*
G01*
X136202500Y-45195000D01*
G75*
G02*
X136465000Y-45457500I0J-262500D01*
G01*
G37*
G36*
G01*
X138215000Y-45457500D02*
X138215000Y-45982500D01*
G75*
G02*
X137952500Y-46245000I-262500J0D01*
G01*
X137327500Y-46245000D01*
G75*
G02*
X137065000Y-45982500I0J262500D01*
G01*
X137065000Y-45457500D01*
G75*
G02*
X137327500Y-45195000I262500J0D01*
G01*
X137952500Y-45195000D01*
G75*
G02*
X138215000Y-45457500I0J-262500D01*
G01*
G37*
%TD*%
%TO.C,D14*%
G36*
G01*
X186427500Y-47685000D02*
X186952500Y-47685000D01*
G75*
G02*
X187215000Y-47947500I0J-262500D01*
G01*
X187215000Y-48572500D01*
G75*
G02*
X186952500Y-48835000I-262500J0D01*
G01*
X186427500Y-48835000D01*
G75*
G02*
X186165000Y-48572500I0J262500D01*
G01*
X186165000Y-47947500D01*
G75*
G02*
X186427500Y-47685000I262500J0D01*
G01*
G37*
G36*
G01*
X186427500Y-45935000D02*
X186952500Y-45935000D01*
G75*
G02*
X187215000Y-46197500I0J-262500D01*
G01*
X187215000Y-46822500D01*
G75*
G02*
X186952500Y-47085000I-262500J0D01*
G01*
X186427500Y-47085000D01*
G75*
G02*
X186165000Y-46822500I0J262500D01*
G01*
X186165000Y-46197500D01*
G75*
G02*
X186427500Y-45935000I262500J0D01*
G01*
G37*
%TD*%
%TO.C,D13*%
G36*
G01*
X180585500Y-47685000D02*
X181110500Y-47685000D01*
G75*
G02*
X181373000Y-47947500I0J-262500D01*
G01*
X181373000Y-48572500D01*
G75*
G02*
X181110500Y-48835000I-262500J0D01*
G01*
X180585500Y-48835000D01*
G75*
G02*
X180323000Y-48572500I0J262500D01*
G01*
X180323000Y-47947500D01*
G75*
G02*
X180585500Y-47685000I262500J0D01*
G01*
G37*
G36*
G01*
X180585500Y-45935000D02*
X181110500Y-45935000D01*
G75*
G02*
X181373000Y-46197500I0J-262500D01*
G01*
X181373000Y-46822500D01*
G75*
G02*
X181110500Y-47085000I-262500J0D01*
G01*
X180585500Y-47085000D01*
G75*
G02*
X180323000Y-46822500I0J262500D01*
G01*
X180323000Y-46197500D01*
G75*
G02*
X180585500Y-45935000I262500J0D01*
G01*
G37*
%TD*%
%TO.C,D12*%
G36*
G01*
X174743500Y-47657000D02*
X175268500Y-47657000D01*
G75*
G02*
X175531000Y-47919500I0J-262500D01*
G01*
X175531000Y-48544500D01*
G75*
G02*
X175268500Y-48807000I-262500J0D01*
G01*
X174743500Y-48807000D01*
G75*
G02*
X174481000Y-48544500I0J262500D01*
G01*
X174481000Y-47919500D01*
G75*
G02*
X174743500Y-47657000I262500J0D01*
G01*
G37*
G36*
G01*
X174743500Y-45907000D02*
X175268500Y-45907000D01*
G75*
G02*
X175531000Y-46169500I0J-262500D01*
G01*
X175531000Y-46794500D01*
G75*
G02*
X175268500Y-47057000I-262500J0D01*
G01*
X174743500Y-47057000D01*
G75*
G02*
X174481000Y-46794500I0J262500D01*
G01*
X174481000Y-46169500D01*
G75*
G02*
X174743500Y-45907000I262500J0D01*
G01*
G37*
%TD*%
%TO.C,D11*%
G36*
G01*
X168901500Y-47685000D02*
X169426500Y-47685000D01*
G75*
G02*
X169689000Y-47947500I0J-262500D01*
G01*
X169689000Y-48572500D01*
G75*
G02*
X169426500Y-48835000I-262500J0D01*
G01*
X168901500Y-48835000D01*
G75*
G02*
X168639000Y-48572500I0J262500D01*
G01*
X168639000Y-47947500D01*
G75*
G02*
X168901500Y-47685000I262500J0D01*
G01*
G37*
G36*
G01*
X168901500Y-45935000D02*
X169426500Y-45935000D01*
G75*
G02*
X169689000Y-46197500I0J-262500D01*
G01*
X169689000Y-46822500D01*
G75*
G02*
X169426500Y-47085000I-262500J0D01*
G01*
X168901500Y-47085000D01*
G75*
G02*
X168639000Y-46822500I0J262500D01*
G01*
X168639000Y-46197500D01*
G75*
G02*
X168901500Y-45935000I262500J0D01*
G01*
G37*
%TD*%
%TO.C,D10*%
G36*
G01*
X162805500Y-47685000D02*
X163330500Y-47685000D01*
G75*
G02*
X163593000Y-47947500I0J-262500D01*
G01*
X163593000Y-48572500D01*
G75*
G02*
X163330500Y-48835000I-262500J0D01*
G01*
X162805500Y-48835000D01*
G75*
G02*
X162543000Y-48572500I0J262500D01*
G01*
X162543000Y-47947500D01*
G75*
G02*
X162805500Y-47685000I262500J0D01*
G01*
G37*
G36*
G01*
X162805500Y-45935000D02*
X163330500Y-45935000D01*
G75*
G02*
X163593000Y-46197500I0J-262500D01*
G01*
X163593000Y-46822500D01*
G75*
G02*
X163330500Y-47085000I-262500J0D01*
G01*
X162805500Y-47085000D01*
G75*
G02*
X162543000Y-46822500I0J262500D01*
G01*
X162543000Y-46197500D01*
G75*
G02*
X162805500Y-45935000I262500J0D01*
G01*
G37*
%TD*%
%TO.C,D9*%
G36*
G01*
X156709500Y-47685000D02*
X157234500Y-47685000D01*
G75*
G02*
X157497000Y-47947500I0J-262500D01*
G01*
X157497000Y-48572500D01*
G75*
G02*
X157234500Y-48835000I-262500J0D01*
G01*
X156709500Y-48835000D01*
G75*
G02*
X156447000Y-48572500I0J262500D01*
G01*
X156447000Y-47947500D01*
G75*
G02*
X156709500Y-47685000I262500J0D01*
G01*
G37*
G36*
G01*
X156709500Y-45935000D02*
X157234500Y-45935000D01*
G75*
G02*
X157497000Y-46197500I0J-262500D01*
G01*
X157497000Y-46822500D01*
G75*
G02*
X157234500Y-47085000I-262500J0D01*
G01*
X156709500Y-47085000D01*
G75*
G02*
X156447000Y-46822500I0J262500D01*
G01*
X156447000Y-46197500D01*
G75*
G02*
X156709500Y-45935000I262500J0D01*
G01*
G37*
%TD*%
%TO.C,D7*%
G36*
G01*
X126737500Y-109153000D02*
X127262500Y-109153000D01*
G75*
G02*
X127525000Y-109415500I0J-262500D01*
G01*
X127525000Y-110040500D01*
G75*
G02*
X127262500Y-110303000I-262500J0D01*
G01*
X126737500Y-110303000D01*
G75*
G02*
X126475000Y-110040500I0J262500D01*
G01*
X126475000Y-109415500D01*
G75*
G02*
X126737500Y-109153000I262500J0D01*
G01*
G37*
G36*
G01*
X126737500Y-107403000D02*
X127262500Y-107403000D01*
G75*
G02*
X127525000Y-107665500I0J-262500D01*
G01*
X127525000Y-108290500D01*
G75*
G02*
X127262500Y-108553000I-262500J0D01*
G01*
X126737500Y-108553000D01*
G75*
G02*
X126475000Y-108290500I0J262500D01*
G01*
X126475000Y-107665500D01*
G75*
G02*
X126737500Y-107403000I262500J0D01*
G01*
G37*
%TD*%
%TO.C,D6*%
G36*
G01*
X192777500Y-71815000D02*
X193302500Y-71815000D01*
G75*
G02*
X193565000Y-72077500I0J-262500D01*
G01*
X193565000Y-72702500D01*
G75*
G02*
X193302500Y-72965000I-262500J0D01*
G01*
X192777500Y-72965000D01*
G75*
G02*
X192515000Y-72702500I0J262500D01*
G01*
X192515000Y-72077500D01*
G75*
G02*
X192777500Y-71815000I262500J0D01*
G01*
G37*
G36*
G01*
X192777500Y-70065000D02*
X193302500Y-70065000D01*
G75*
G02*
X193565000Y-70327500I0J-262500D01*
G01*
X193565000Y-70952500D01*
G75*
G02*
X193302500Y-71215000I-262500J0D01*
G01*
X192777500Y-71215000D01*
G75*
G02*
X192515000Y-70952500I0J262500D01*
G01*
X192515000Y-70327500D01*
G75*
G02*
X192777500Y-70065000I262500J0D01*
G01*
G37*
%TD*%
%TO.C,D5*%
G36*
G01*
X145279500Y-109125000D02*
X145804500Y-109125000D01*
G75*
G02*
X146067000Y-109387500I0J-262500D01*
G01*
X146067000Y-110012500D01*
G75*
G02*
X145804500Y-110275000I-262500J0D01*
G01*
X145279500Y-110275000D01*
G75*
G02*
X145017000Y-110012500I0J262500D01*
G01*
X145017000Y-109387500D01*
G75*
G02*
X145279500Y-109125000I262500J0D01*
G01*
G37*
G36*
G01*
X145279500Y-107375000D02*
X145804500Y-107375000D01*
G75*
G02*
X146067000Y-107637500I0J-262500D01*
G01*
X146067000Y-108262500D01*
G75*
G02*
X145804500Y-108525000I-262500J0D01*
G01*
X145279500Y-108525000D01*
G75*
G02*
X145017000Y-108262500I0J262500D01*
G01*
X145017000Y-107637500D01*
G75*
G02*
X145279500Y-107375000I262500J0D01*
G01*
G37*
%TD*%
%TO.C,D4*%
G36*
G01*
X138929500Y-109153000D02*
X139454500Y-109153000D01*
G75*
G02*
X139717000Y-109415500I0J-262500D01*
G01*
X139717000Y-110040500D01*
G75*
G02*
X139454500Y-110303000I-262500J0D01*
G01*
X138929500Y-110303000D01*
G75*
G02*
X138667000Y-110040500I0J262500D01*
G01*
X138667000Y-109415500D01*
G75*
G02*
X138929500Y-109153000I262500J0D01*
G01*
G37*
G36*
G01*
X138929500Y-107403000D02*
X139454500Y-107403000D01*
G75*
G02*
X139717000Y-107665500I0J-262500D01*
G01*
X139717000Y-108290500D01*
G75*
G02*
X139454500Y-108553000I-262500J0D01*
G01*
X138929500Y-108553000D01*
G75*
G02*
X138667000Y-108290500I0J262500D01*
G01*
X138667000Y-107665500D01*
G75*
G02*
X138929500Y-107403000I262500J0D01*
G01*
G37*
%TD*%
%TO.C,D3*%
G36*
G01*
X132579500Y-109153000D02*
X133104500Y-109153000D01*
G75*
G02*
X133367000Y-109415500I0J-262500D01*
G01*
X133367000Y-110040500D01*
G75*
G02*
X133104500Y-110303000I-262500J0D01*
G01*
X132579500Y-110303000D01*
G75*
G02*
X132317000Y-110040500I0J262500D01*
G01*
X132317000Y-109415500D01*
G75*
G02*
X132579500Y-109153000I262500J0D01*
G01*
G37*
G36*
G01*
X132579500Y-107403000D02*
X133104500Y-107403000D01*
G75*
G02*
X133367000Y-107665500I0J-262500D01*
G01*
X133367000Y-108290500D01*
G75*
G02*
X133104500Y-108553000I-262500J0D01*
G01*
X132579500Y-108553000D01*
G75*
G02*
X132317000Y-108290500I0J262500D01*
G01*
X132317000Y-107665500D01*
G75*
G02*
X132579500Y-107403000I262500J0D01*
G01*
G37*
%TD*%
%TO.C,D2*%
G36*
G01*
X120895500Y-109153000D02*
X121420500Y-109153000D01*
G75*
G02*
X121683000Y-109415500I0J-262500D01*
G01*
X121683000Y-110040500D01*
G75*
G02*
X121420500Y-110303000I-262500J0D01*
G01*
X120895500Y-110303000D01*
G75*
G02*
X120633000Y-110040500I0J262500D01*
G01*
X120633000Y-109415500D01*
G75*
G02*
X120895500Y-109153000I262500J0D01*
G01*
G37*
G36*
G01*
X120895500Y-107403000D02*
X121420500Y-107403000D01*
G75*
G02*
X121683000Y-107665500I0J-262500D01*
G01*
X121683000Y-108290500D01*
G75*
G02*
X121420500Y-108553000I-262500J0D01*
G01*
X120895500Y-108553000D01*
G75*
G02*
X120633000Y-108290500I0J262500D01*
G01*
X120633000Y-107665500D01*
G75*
G02*
X120895500Y-107403000I262500J0D01*
G01*
G37*
%TD*%
D20*
%TO.C,D1*%
X86614000Y-129540000D03*
X86614000Y-127040000D03*
%TD*%
D13*
%TO.C,Conn6*%
X133350000Y-122910000D03*
X133350000Y-130810000D03*
%TD*%
%TO.C,C1*%
G36*
G01*
X89653500Y-128203000D02*
X90178500Y-128203000D01*
G75*
G02*
X90441000Y-128465500I0J-262500D01*
G01*
X90441000Y-129090500D01*
G75*
G02*
X90178500Y-129353000I-262500J0D01*
G01*
X89653500Y-129353000D01*
G75*
G02*
X89391000Y-129090500I0J262500D01*
G01*
X89391000Y-128465500D01*
G75*
G02*
X89653500Y-128203000I262500J0D01*
G01*
G37*
G36*
G01*
X89653500Y-126453000D02*
X90178500Y-126453000D01*
G75*
G02*
X90441000Y-126715500I0J-262500D01*
G01*
X90441000Y-127340500D01*
G75*
G02*
X90178500Y-127603000I-262500J0D01*
G01*
X89653500Y-127603000D01*
G75*
G02*
X89391000Y-127340500I0J262500D01*
G01*
X89391000Y-126715500D01*
G75*
G02*
X89653500Y-126453000I262500J0D01*
G01*
G37*
%TD*%
%TO.C,10uF4*%
G36*
G01*
X167902500Y-113605000D02*
X167377500Y-113605000D01*
G75*
G02*
X167115000Y-113342500I0J262500D01*
G01*
X167115000Y-112717500D01*
G75*
G02*
X167377500Y-112455000I262500J0D01*
G01*
X167902500Y-112455000D01*
G75*
G02*
X168165000Y-112717500I0J-262500D01*
G01*
X168165000Y-113342500D01*
G75*
G02*
X167902500Y-113605000I-262500J0D01*
G01*
G37*
G36*
G01*
X167902500Y-115355000D02*
X167377500Y-115355000D01*
G75*
G02*
X167115000Y-115092500I0J262500D01*
G01*
X167115000Y-114467500D01*
G75*
G02*
X167377500Y-114205000I262500J0D01*
G01*
X167902500Y-114205000D01*
G75*
G02*
X168165000Y-114467500I0J-262500D01*
G01*
X168165000Y-115092500D01*
G75*
G02*
X167902500Y-115355000I-262500J0D01*
G01*
G37*
%TD*%
%TO.C,10uF3*%
G36*
G01*
X164092500Y-113605000D02*
X163567500Y-113605000D01*
G75*
G02*
X163305000Y-113342500I0J262500D01*
G01*
X163305000Y-112717500D01*
G75*
G02*
X163567500Y-112455000I262500J0D01*
G01*
X164092500Y-112455000D01*
G75*
G02*
X164355000Y-112717500I0J-262500D01*
G01*
X164355000Y-113342500D01*
G75*
G02*
X164092500Y-113605000I-262500J0D01*
G01*
G37*
G36*
G01*
X164092500Y-115355000D02*
X163567500Y-115355000D01*
G75*
G02*
X163305000Y-115092500I0J262500D01*
G01*
X163305000Y-114467500D01*
G75*
G02*
X163567500Y-114205000I262500J0D01*
G01*
X164092500Y-114205000D01*
G75*
G02*
X164355000Y-114467500I0J-262500D01*
G01*
X164355000Y-115092500D01*
G75*
G02*
X164092500Y-115355000I-262500J0D01*
G01*
G37*
%TD*%
%TO.C,10uF2*%
G36*
G01*
X160282500Y-113605000D02*
X159757500Y-113605000D01*
G75*
G02*
X159495000Y-113342500I0J262500D01*
G01*
X159495000Y-112717500D01*
G75*
G02*
X159757500Y-112455000I262500J0D01*
G01*
X160282500Y-112455000D01*
G75*
G02*
X160545000Y-112717500I0J-262500D01*
G01*
X160545000Y-113342500D01*
G75*
G02*
X160282500Y-113605000I-262500J0D01*
G01*
G37*
G36*
G01*
X160282500Y-115355000D02*
X159757500Y-115355000D01*
G75*
G02*
X159495000Y-115092500I0J262500D01*
G01*
X159495000Y-114467500D01*
G75*
G02*
X159757500Y-114205000I262500J0D01*
G01*
X160282500Y-114205000D01*
G75*
G02*
X160545000Y-114467500I0J-262500D01*
G01*
X160545000Y-115092500D01*
G75*
G02*
X160282500Y-115355000I-262500J0D01*
G01*
G37*
%TD*%
%TO.C,10uF1*%
G36*
G01*
X156472500Y-113605000D02*
X155947500Y-113605000D01*
G75*
G02*
X155685000Y-113342500I0J262500D01*
G01*
X155685000Y-112717500D01*
G75*
G02*
X155947500Y-112455000I262500J0D01*
G01*
X156472500Y-112455000D01*
G75*
G02*
X156735000Y-112717500I0J-262500D01*
G01*
X156735000Y-113342500D01*
G75*
G02*
X156472500Y-113605000I-262500J0D01*
G01*
G37*
G36*
G01*
X156472500Y-115355000D02*
X155947500Y-115355000D01*
G75*
G02*
X155685000Y-115092500I0J262500D01*
G01*
X155685000Y-114467500D01*
G75*
G02*
X155947500Y-114205000I262500J0D01*
G01*
X156472500Y-114205000D01*
G75*
G02*
X156735000Y-114467500I0J-262500D01*
G01*
X156735000Y-115092500D01*
G75*
G02*
X156472500Y-115355000I-262500J0D01*
G01*
G37*
%TD*%
%TO.C,.1uF1*%
G36*
G01*
X152662500Y-113605000D02*
X152137500Y-113605000D01*
G75*
G02*
X151875000Y-113342500I0J262500D01*
G01*
X151875000Y-112717500D01*
G75*
G02*
X152137500Y-112455000I262500J0D01*
G01*
X152662500Y-112455000D01*
G75*
G02*
X152925000Y-112717500I0J-262500D01*
G01*
X152925000Y-113342500D01*
G75*
G02*
X152662500Y-113605000I-262500J0D01*
G01*
G37*
G36*
G01*
X152662500Y-115355000D02*
X152137500Y-115355000D01*
G75*
G02*
X151875000Y-115092500I0J262500D01*
G01*
X151875000Y-114467500D01*
G75*
G02*
X152137500Y-114205000I262500J0D01*
G01*
X152662500Y-114205000D01*
G75*
G02*
X152925000Y-114467500I0J-262500D01*
G01*
X152925000Y-115092500D01*
G75*
G02*
X152662500Y-115355000I-262500J0D01*
G01*
G37*
%TD*%
M02*
