M48
; DRILL file {KiCad (5.1.6)-1} date 11/24/20 13:28:47
; FORMAT={-:-/ absolute / inch / decimal}
; #@! TF.CreationDate,2020-11-24T13:28:47-06:00
; #@! TF.GenerationSoftware,Kicad,Pcbnew,(5.1.6)-1
; #@! TF.FileFunction,Plated,1,2,PTH
FMAT,2
INCH
T1C0.0157
T2C0.0315
T3C0.0350
T4C0.0354
T5C0.1598
T6C0.1616
%
G90
G05
T1
X3.0Y-4.55
X3.02Y-4.31
X3.02Y-4.44
X3.03Y-3.55
X3.05Y-2.82
X3.06Y-3.72
X3.08Y-2.56
X3.08Y-3.18
X3.09Y-4.24
X3.1Y-1.99
X3.1Y-3.45
X3.1Y-4.59
X3.11Y-4.34
X3.13Y-4.47
X3.13Y-4.72
X3.15Y-5.05
X3.16Y-4.93
X3.2Y-4.4
X3.21Y-4.6
X3.25Y-3.76
X3.25Y-4.5
X3.27Y-4.64
X3.27Y-4.9
X3.27Y-5.02
X3.29Y-5.28
X3.29Y-5.4
X3.3Y-2.8
X3.32Y-3.35
X3.32Y-3.5
X3.37Y-1.66
X3.38Y-4.66
X3.39Y-4.88
X3.4Y-2.74
X3.42Y-2.82
X3.42Y-4.55
X3.43Y-4.93
X3.48Y-5.13
X3.5Y-4.6
X3.54Y-3.41
X3.54Y-4.54
X3.56Y-4.69
X3.56Y-4.75
X3.57Y-5.14
X3.58Y-1.61
X3.6Y-1.7
X3.6Y-2.89
X3.68Y-4.19
X3.69Y-5.13
X3.7Y-3.07
X3.71Y-1.98
X3.72Y-2.77
X3.72Y-2.81
X3.75Y-3.07
X3.76Y-4.27
X3.76Y-4.38
X3.8Y-2.77
X3.8Y-2.81
X3.8Y-3.57
X3.8Y-3.65
X3.8Y-3.72
X3.8Y-3.78
X3.8Y-5.4
X3.81Y-3.35
X3.81Y-4.21
X3.81Y-5.13
X3.82Y-3.19
X3.82Y-3.27
X3.82Y-3.41
X3.83Y-1.79
X3.83Y-2.88
X3.84Y-4.27
X3.86Y-4.6
X3.9Y-5.4
X3.94Y-5.2
X3.95Y-1.61
X3.95Y-5.35
X3.96Y-2.86
X3.97Y-1.93
X3.97Y-2.06
X3.97Y-2.95
X3.97Y-3.13
X3.98Y-3.03
X3.99Y-3.95
X4.0Y-4.68
X4.0Y-5.4
X4.01Y-5.13
X4.02Y-3.39
X4.02Y-3.85
X4.04Y-5.21
X4.05Y-5.35
X4.07Y-2.88
X4.08Y-1.79
X4.08Y-5.14
X4.09Y-3.92
X4.1Y-5.4
X4.11Y-3.66
X4.12Y-2.21
X4.13Y-2.81
X4.13Y-3.78
X4.14Y-2.77
X4.14Y-2.91
X4.15Y-3.87
X4.15Y-3.97
X4.16Y-1.59
X4.18Y-3.57
X4.18Y-3.62
X4.19Y-3.67
X4.19Y-4.17
X4.2Y-3.07
X4.2Y-5.4
X4.21Y-4.32
X4.22Y-1.72
X4.22Y-4.05
X4.23Y-1.98
X4.23Y-3.34
X4.23Y-4.24
X4.2486Y-3.0686
X4.27Y-1.79
X4.27Y-1.92
X4.27Y-2.81
X4.28Y-2.77
X4.29Y-4.79
X4.29Y-4.84
X4.29Y-4.89
X4.29Y-4.94
X4.29Y-4.99
X4.29Y-5.04
X4.29Y-5.09
X4.29Y-5.14
X4.29Y-5.19
X4.3Y-5.4
X4.3195Y-3.5305
X4.35Y-4.79
X4.35Y-4.84
X4.35Y-4.89
X4.35Y-4.94
X4.35Y-4.99
X4.35Y-5.04
X4.35Y-5.09
X4.35Y-5.14
X4.35Y-5.19
X4.36Y-2.25
X4.39Y-3.44
X4.4Y-5.4
X4.41Y-4.79
X4.41Y-4.84
X4.41Y-4.89
X4.41Y-4.94
X4.41Y-4.99
X4.41Y-5.04
X4.41Y-5.09
X4.41Y-5.14
X4.41Y-5.19
X4.47Y-4.79
X4.47Y-4.84
X4.47Y-4.89
X4.47Y-4.94
X4.47Y-4.99
X4.47Y-5.04
X4.47Y-5.09
X4.47Y-5.14
X4.47Y-5.19
X4.48Y-1.59
X4.49Y-2.23
X4.5Y-5.4
X4.52Y-4.24
X4.55Y-1.7
X4.56Y-4.68
X4.56Y-4.74
X4.56Y-4.8
X4.56Y-4.86
X4.56Y-4.92
X4.57Y-5.07
X4.57Y-5.12
X4.57Y-5.18
X4.57Y-5.24
X4.59Y-4.2
X4.6Y-4.26
X4.6Y-5.4
X4.61Y-2.27
X4.61Y-4.68
X4.61Y-4.74
X4.61Y-4.8
X4.61Y-4.86
X4.61Y-4.92
X4.62Y-3.36
X4.62Y-5.07
X4.62Y-5.12
X4.62Y-5.18
X4.62Y-5.24
X4.63Y-2.19
X4.66Y-4.68
X4.66Y-4.74
X4.66Y-4.8
X4.66Y-4.86
X4.66Y-4.92
X4.67Y-5.07
X4.67Y-5.12
X4.67Y-5.18
X4.67Y-5.24
X4.7Y-5.4
X4.72Y-4.68
X4.72Y-4.74
X4.72Y-4.8
X4.72Y-4.86
X4.72Y-4.92
X4.72Y-5.07
X4.72Y-5.12
X4.72Y-5.18
X4.72Y-5.24
X4.8Y-1.74
X4.8Y-5.4
X4.86Y-2.14
X4.86Y-3.95
X4.87Y-2.32
X4.87Y-2.53
X4.88Y-2.69
X4.88Y-3.19
X4.9Y-1.63
X4.9Y-2.96
X4.91Y-5.41
X4.92Y-4.08
X4.95Y-5.0
X4.96Y-2.0
X4.96Y-3.45
X4.97Y-5.41
X5.0Y-4.02
X5.01Y-2.42
X5.03Y-5.41
X5.05Y-1.85
X5.05Y-2.21
X5.05Y-4.09
X5.05Y-5.0
X5.1Y-3.95
X5.15Y-5.4
X5.16Y-4.09
X5.17Y-2.9
X5.1995Y-3.5305
X5.2Y-3.57
X5.2Y-3.62
X5.23Y-4.01
X5.25Y-2.23
X5.25Y-2.45
X5.25Y-5.4
X5.28Y-4.09
X5.3Y-2.77
X5.3Y-2.81
X5.3Y-2.85
X5.3Y-2.89
X5.3Y-2.93
X5.3Y-3.94
X5.33Y-1.63
X5.35Y-5.4
X5.39Y-4.1
X5.4Y-3.96
X5.4Y-4.55
X5.4Y-5.05
X5.4Y-5.15
X5.4Y-5.25
X5.4Y-5.35
X5.41Y-3.85
X5.45Y-4.6
X5.45Y-4.7
X5.45Y-4.8
X5.45Y-4.9
X5.45Y-5.1
X5.45Y-5.2
X5.45Y-5.3
X5.45Y-5.4
X5.46Y-2.77
X5.46Y-2.81
X5.46Y-2.85
X5.46Y-2.89
X5.46Y-2.93
X5.4695Y-3.5305
X5.47Y-3.57
X5.47Y-3.62
X5.48Y-3.28
X5.5Y-3.06
X5.5Y-4.65
X5.5Y-4.95
X5.5Y-5.05
X5.5Y-5.25
X5.5Y-5.35
X5.55Y-4.6
X5.55Y-4.7
X5.55Y-5.3
X5.55Y-5.4
X5.56Y-1.99
X5.57Y-2.54
X5.58Y-2.76
X5.58Y-3.36
X5.59Y-3.64
X5.59Y-3.74
X5.6Y-4.65
X5.6Y-5.35
X5.64Y-1.74
X5.65Y-4.6
X5.65Y-4.7
X5.65Y-5.3
X5.65Y-5.4
X5.6819Y-3.6419
X5.7Y-4.65
X5.7Y-4.75
X5.7Y-4.95
X5.7Y-5.05
X5.7Y-5.25
X5.7Y-5.35
X5.75Y-4.6
X5.75Y-4.7
X5.75Y-5.1
X5.75Y-5.2
X5.75Y-5.3
X5.75Y-5.4
X5.78Y-1.61
X5.8Y-4.65
X5.8Y-4.75
X5.8Y-4.85
X5.8Y-4.95
X5.8Y-5.05
X5.8Y-5.15
X5.8Y-5.25
X5.8Y-5.35
X5.85Y-4.6
X5.85Y-4.7
X5.85Y-5.3
X5.85Y-5.4
X5.8819Y-3.6419
X5.9Y-4.55
X5.9Y-4.65
X5.9Y-5.35
X5.93Y-4.26
X5.95Y-4.6
X5.95Y-4.7
X5.95Y-5.3
X5.95Y-5.4
X5.98Y-1.94
X6.0Y-1.74
X6.0Y-4.65
X6.0Y-5.35
X6.05Y-4.6
X6.05Y-4.7
X6.05Y-5.3
X6.05Y-5.4
X6.1Y-4.65
X6.1Y-4.75
X6.1Y-4.85
X6.1Y-4.95
X6.1Y-5.05
X6.1Y-5.15
X6.1Y-5.25
X6.1Y-5.35
X6.11Y-2.56
X6.11Y-2.6
X6.11Y-3.75
X6.11Y-3.75
X6.14Y-4.26
X6.15Y-4.6
X6.15Y-4.7
X6.15Y-4.8
X6.15Y-4.9
X6.15Y-5.1
X6.15Y-5.2
X6.15Y-5.3
X6.15Y-5.4
X6.1828Y-3.6428
X6.2Y-4.65
X6.2Y-4.95
X6.2Y-5.05
X6.2Y-5.25
X6.2Y-5.35
X6.21Y-4.2
X6.25Y-4.6
X6.25Y-4.7
X6.25Y-5.3
X6.25Y-5.4
X6.3Y-4.65
X6.3Y-5.35
X6.31Y-4.2
X6.35Y-4.6
X6.35Y-4.7
X6.35Y-5.3
X6.35Y-5.4
X6.36Y-4.26
X6.3828Y-3.6472
X6.4Y-4.65
X6.4Y-4.95
X6.4Y-5.25
X6.4Y-5.35
X6.41Y-4.2
X6.45Y-4.6
X6.45Y-4.7
X6.45Y-4.8
X6.45Y-4.9
X6.45Y-5.2
X6.45Y-5.3
X6.45Y-5.4
X6.5Y-4.65
X6.5Y-4.75
X6.5Y-4.85
X6.5Y-4.95
X6.51Y-4.24
X6.55Y-4.15
X6.55Y-4.6
X6.55Y-4.7
X6.55Y-4.8
X6.55Y-4.9
X6.55Y-5.0
X6.55Y-5.1
X6.55Y-5.2
X6.55Y-5.3
X6.55Y-5.4
X6.59Y-4.22
X6.6Y-3.75
X6.6Y-3.85
X6.6Y-4.65
X6.6Y-4.75
X6.6Y-4.85
X6.6Y-4.95
X6.6Y-5.05
X6.61Y-3.99
X6.65Y-2.28
X6.65Y-4.6
X6.65Y-4.7
X6.65Y-4.8
X6.65Y-4.9
X6.65Y-5.0
X6.65Y-5.4
X6.66Y-2.42
X6.66Y-4.15
X6.6725Y-3.6525
X6.68Y-4.24
X6.7Y-4.55
X6.7Y-4.65
X6.7Y-4.75
X6.7Y-4.85
X6.7Y-4.95
X6.7Y-5.05
X6.72Y-2.12
X6.75Y-4.15
X6.75Y-4.5
X6.75Y-4.8
X6.75Y-4.9
X6.75Y-5.0
X6.75Y-5.4
X6.76Y-2.28
X6.8Y-4.85
X6.8Y-4.95
X6.8Y-5.05
X6.8Y-5.3
X6.84Y-2.4
X6.84Y-4.16
X6.85Y-5.4
X6.8725Y-3.6525
X6.9Y-2.3
X6.94Y-2.14
X6.94Y-2.44
X6.94Y-4.14
X6.95Y-5.0
X6.95Y-5.4
X6.97Y-2.2
X7.0Y-5.05
X7.03Y-4.15
X7.03Y-4.24
X7.03Y-4.53
X7.04Y-4.33
X7.04Y-4.43
X7.05Y-4.63
X7.05Y-4.75
X7.05Y-5.0
X7.05Y-5.4
X7.1Y-3.14
X7.1Y-5.05
X7.15Y-4.2
X7.15Y-4.3
X7.15Y-4.4
X7.15Y-4.5
X7.15Y-4.6
X7.15Y-4.7
X7.15Y-4.8
X7.15Y-5.0
X7.15Y-5.1
X7.15Y-5.2
X7.15Y-5.3
X7.15Y-5.4
X7.16Y-2.89
X7.19Y-2.73
X7.2Y-2.33
X7.2Y-2.52
X7.2Y-4.15
X7.2Y-5.35
X7.22Y-3.05
X7.25Y-5.4
X7.27Y-2.82
X7.3Y-4.15
X7.3Y-5.35
X7.31Y-2.23
X7.32Y-2.46
X7.35Y-5.4
X7.38Y-3.1
X7.39Y-2.61
X7.4Y-2.91
X7.4Y-4.15
X7.4Y-5.35
X7.45Y-5.1
X7.45Y-5.2
X7.45Y-5.3
X7.45Y-5.4
X7.47Y-2.31
X7.5Y-4.15
X7.5Y-5.15
X7.5Y-5.25
X7.52Y-1.9
X7.55Y-5.1
X7.57Y-2.04
X7.59Y-2.22
X7.6Y-4.15
X7.65Y-5.1
X7.7Y-4.15
X7.7Y-4.25
X7.7Y-4.35
X7.7Y-4.45
X7.7Y-4.55
X7.7Y-4.65
X7.7Y-4.75
X7.7Y-4.85
X7.7Y-4.95
X7.7Y-5.05
X7.71Y-3.18
X7.72Y-1.96
X7.74Y-2.17
X7.75Y-5.1
X7.78Y-2.35
X7.79Y-2.89
X7.8Y-4.15
X7.8Y-4.25
X7.8Y-4.35
X7.8Y-4.45
X7.8Y-4.55
X7.8Y-4.65
X7.8Y-4.75
X7.8Y-4.85
X7.8Y-4.95
X7.8Y-5.05
T2
X6.81Y-4.68
X6.9084Y-4.68
X6.81Y-4.38
X6.9084Y-4.38
T3
X7.3Y-4.8
X7.4Y-4.8
X7.5Y-4.8
T4
X3.44Y-3.71
X3.54Y-3.71
X5.76Y-3.11
X5.86Y-3.11
X5.96Y-3.11
X3.44Y-4.24
X3.54Y-4.24
X6.26Y-2.71
X6.36Y-2.71
X6.46Y-2.71
X6.7525Y-3.5058
X6.8525Y-3.5058
X6.9525Y-3.5058
X6.26Y-3.11
X6.36Y-3.11
X6.46Y-3.11
X5.76Y-2.71
X5.86Y-2.71
X5.96Y-2.71
X3.94Y-4.24
X4.04Y-4.24
X3.94Y-3.71
X4.04Y-3.71
X6.2572Y-3.5058
X6.3572Y-3.5058
X6.4572Y-3.5058
X6.75Y-2.71
X6.85Y-2.71
X6.95Y-2.71
X5.7619Y-3.5058
X5.8619Y-3.5058
X5.9619Y-3.5058
X6.75Y-3.11
X6.85Y-3.11
X6.95Y-3.11
T5
X6.7Y-5.2
X7.0Y-5.2
X7.32Y-5.2
T6
X6.3Y-4.839
X6.3Y-5.15
X5.25Y-4.839
X5.25Y-5.15
X5.949Y-4.8385
X5.949Y-5.1495
X5.6Y-4.839
X5.6Y-5.15
T0
M30
