%TF.GenerationSoftware,KiCad,Pcbnew,(5.1.6)-1*%
%TF.CreationDate,2020-11-24T13:28:34-06:00*%
%TF.ProjectId,Armboard,41726d62-6f61-4726-942e-6b696361645f,rev?*%
%TF.SameCoordinates,Original*%
%TF.FileFunction,Paste,Bot*%
%TF.FilePolarity,Positive*%
%FSLAX46Y46*%
G04 Gerber Fmt 4.6, Leading zero omitted, Abs format (unit mm)*
G04 Created by KiCad (PCBNEW (5.1.6)-1) date 2020-11-24 13:28:34*
%MOMM*%
%LPD*%
G01*
G04 APERTURE LIST*
%ADD10R,0.990600X1.778000*%
%ADD11C,5.080000*%
G04 APERTURE END LIST*
D10*
%TO.C,U2*%
X99314000Y-54965600D03*
X96774000Y-54965600D03*
X94234000Y-54965600D03*
X91694000Y-54965600D03*
X89154000Y-54965600D03*
X86614000Y-54965600D03*
X84074000Y-54965600D03*
X81534000Y-54965600D03*
X78994000Y-54965600D03*
X76454000Y-54965600D03*
X99314000Y-60858400D03*
X96774000Y-60858400D03*
X94234000Y-60858400D03*
X91694000Y-60858400D03*
X89154000Y-60858400D03*
X86614000Y-60858400D03*
X84074000Y-60858400D03*
X81534000Y-60858400D03*
X78994000Y-60858400D03*
X76454000Y-60858400D03*
X99314000Y-104038400D03*
X96774000Y-104038400D03*
X94234000Y-104038400D03*
X91694000Y-104038400D03*
X89154000Y-104038400D03*
X86614000Y-104038400D03*
X84074000Y-104038400D03*
X81534000Y-104038400D03*
X78994000Y-104038400D03*
X76454000Y-104038400D03*
X99314000Y-98145600D03*
X96774000Y-98145600D03*
X94234000Y-98145600D03*
X91694000Y-98145600D03*
X89154000Y-98145600D03*
X86614000Y-98145600D03*
X84074000Y-98145600D03*
X81534000Y-98145600D03*
X78994000Y-98145600D03*
X76454000Y-98145600D03*
X145034000Y-54965600D03*
X142494000Y-54965600D03*
X139954000Y-54965600D03*
X162814000Y-60858400D03*
X160274000Y-60858400D03*
X157734000Y-60858400D03*
X155194000Y-60858400D03*
X152654000Y-60858400D03*
X150114000Y-60858400D03*
X147574000Y-60858400D03*
X145034000Y-60858400D03*
X142494000Y-60858400D03*
X139954000Y-60858400D03*
X162814000Y-104038400D03*
X157734000Y-104038400D03*
X152654000Y-104038400D03*
X150114000Y-104038400D03*
X147574000Y-104038400D03*
X145034000Y-104038400D03*
X142494000Y-104038400D03*
X162814000Y-98145600D03*
X157734000Y-98145600D03*
X147574000Y-98145600D03*
X145034000Y-98145600D03*
X142494000Y-98145600D03*
X139954000Y-98145600D03*
X152654000Y-98145600D03*
X155194000Y-98145600D03*
X160274000Y-104038400D03*
X147574000Y-54965600D03*
X150114000Y-54965600D03*
X160274000Y-98145600D03*
X155194000Y-104038400D03*
X157734000Y-54965600D03*
X155194000Y-54965600D03*
X150114000Y-98145600D03*
X152654000Y-54965600D03*
X160274000Y-54965600D03*
X162814000Y-54965600D03*
X139954000Y-104038400D03*
%TD*%
D11*
%TO.C,Conn1*%
X185928000Y-132080000D03*
X177800000Y-132080000D03*
X170180000Y-132080000D03*
%TD*%
M02*
